<?xml version="1.0" standalone="no"?>
<!DOCTYPE svg PUBLIC "-//W3C//DTD SVG 1.1//EN" "http://www.w3.org/Graphics/SVG/1.1/DTD/svg11.dtd" >
<svg>
<metadata>
Created by FontForge 20090622 at Mon Apr 23 20:18:35 2018
 By deploy user
Copyright &#194;&#169; 1987, 1991, 1998, 2002 Adobe Systems Incorporated.  All Rights Reserved. &#194;&#169; 1981, 1998, 2002 Heidelberger Druckmaschinen AG. All rights reserved.
</metadata>
<defs>
<font id="UniversLTStd-BoldCn" horiz-adv-x="500" >
  <font-face 
    font-family="Univers LT Std 47 Cn Lt"
    font-weight="700"
    font-stretch="condensed"
    units-per-em="1000"
    panose-1="2 11 7 6 3 5 2 4 2 4"
    ascent="724"
    descent="-276"
    x-height="505"
    cap-height="722"
    bbox="-83 -250 1000 969"
    underline-thickness="50"
    underline-position="-50"
    unicode-range="U+0020-U+FB02"
  />
<missing-glyph 
d="M0 0v700h500v-700h-500zM250 395l170 255h-340zM280 350l170 -255v510zM80 50h340l-170 255zM50 605v-510l170 255z" />
    <glyph glyph-name="fi" unicode="fi" 
d="M444 505v-505h-141v505h141zM303 722h141v-111h-141v111zM273 725v-90q-41 3 -55 -13t-14 -56v-61h66v-87h-66v-418h-141v418h-63v87h64q0 44 -0.5 79t6.5 62t22.5 45t47.5 27t83 9q16 0 50 -2z" />
    <glyph glyph-name="fl" unicode="fl" 
d="M273 725v-90q-41 3 -55 -13t-14 -56v-61h66v-87h-66v-418h-141v418h-63v87h64q0 44 -0.5 79t6.5 62t22.5 45t47.5 27t83 9q16 0 50 -2zM303 722h141v-722h-141v722z" />
    <glyph glyph-name=".notdef" 
d="M0 0v700h500v-700h-500zM250 395l170 255h-340zM280 350l170 -255v510zM80 50h340l-170 255zM50 605v-510l170 255z" />
    <glyph glyph-name=".null" horiz-adv-x="0" 
 />
    <glyph glyph-name="nonmarkingreturn" horiz-adv-x="333" 
 />
    <glyph glyph-name="space" unicode=" " horiz-adv-x="222" 
 />
    <glyph glyph-name="exclam" unicode="!" horiz-adv-x="333" 
d="M236 722l-22 -529h-96l-22 529h140zM106 120h120v-120h-120v120z" />
    <glyph glyph-name="quotedbl" unicode="&#x22;" horiz-adv-x="333" 
d="M318 463h-120v259h120v-259zM135 463h-120v259h120v-259z" />
    <glyph glyph-name="numbersign" unicode="#" horiz-adv-x="444" 
d="M186 403l-14 -108h86l14 108h-86zM48 0l25 193h-75v102h88l14 108h-73v102h86l25 193h86l-25 -193h86l25 193h86l-25 -193h75v-102h-88l-14 -108h73v-102h-86l-25 -193h-86l25 193h-86l-25 -193h-86z" />
    <glyph glyph-name="dollar" unicode="$" horiz-adv-x="444" 
d="M243 261v-166q52 10 52 74q0 53 -52 92zM200 95v194l-50.5 31t-46.5 35.5t-44.5 46t-27.5 54.5t-12 70q0 84 49.5 128.5t131.5 52.5v77h43v-77q101 -2 140 -50.5t39 -151.5h-132q3 36 -8 64.5t-39 33.5v-180l31 -18.5t33 -20t30.5 -21t31 -25.5t25 -29t21.5 -35.5
t12.5 -41t5.5 -49.5q0 -99 -50.5 -142t-139.5 -50v-86h-43v86q-59 0 -97.5 15t-58.5 46t-27 68t-7 91h138q0 -25 1 -38.5t5.5 -33t16 -30.5t29.5 -14zM200 451v152q-43 -13 -43 -68q0 -49 43 -84z" />
    <glyph glyph-name="percent" unicode="%" horiz-adv-x="778" 
d="M602 0q-81 0 -112.5 43.5t-31.5 136.5q0 43 6 74t20.5 58.5t44 42t73.5 14.5t73.5 -14.5t44 -42t20.5 -58.5t6 -74q0 -93 -31.5 -136.5t-112.5 -43.5zM602 79q31 0 40 23t9 89v25t-2.5 24.5t-7 25.5t-14.5 16t-25 8t-25 -8t-14.5 -16t-7 -25.5t-2.5 -24.5v-25
q0 -66 9 -89t40 -23zM176 329q-81 0 -112.5 43.5t-31.5 136.5q0 43 6 74t20.5 58.5t44 42t73.5 14.5t73.5 -14.5t44 -42t20.5 -58.5t6 -74q0 -93 -31.5 -136.5t-112.5 -43.5zM176 408q31 0 40 23t9 89v25t-2.5 24.5t-7 25.5t-14.5 16t-25 8t-25 -8t-14.5 -16t-7 -25.5
t-2.5 -24.5v-25q0 -66 9 -89t40 -23zM569 711l-292 -732h-74l292 732h74z" />
    <glyph glyph-name="ampersand" unicode="&#x26;" horiz-adv-x="667" 
d="M515 0l-44 57q-70 -69 -201 -69q-125 0 -191.5 56.5t-66.5 162.5q0 66 38 114.5t104 91.5q-25 32 -39 53.5t-27.5 57t-13.5 70.5q0 60 62.5 100t155.5 40q29 0 58.5 -7t58.5 -22t47.5 -44t18.5 -68q0 -17 -3.5 -33.5t-7 -28.5t-14 -27.5t-15 -23t-20 -22.5l-19.5 -19
t-22.5 -21t-21.5 -19l113 -148q16 58 16 144h122q0 -52 -1.5 -82.5t-13 -79.5t-34.5 -85l109 -148h-148zM383 144l-147 180q-73 -57 -73 -117q0 -52 29 -81.5t81 -29.5q73 0 110 48zM265 483q72 45 72 99q0 29 -16.5 45.5t-45.5 16.5q-25 0 -44 -16t-19 -41q0 -43 53 -104z
" />
    <glyph glyph-name="quotesingle" unicode="'" horiz-adv-x="250" 
d="M185 463h-120v259h120v-259z" />
    <glyph glyph-name="parenleft" unicode="(" horiz-adv-x="278" 
d="M139 755h79q-65 -273 -65 -431q0 -62 7.5 -129t15.5 -110t22.5 -110.5t19.5 -95.5h-79q-3 8 -18 52t-19 57l-16.5 53.5t-17.5 59t-13.5 54t-12 59.5t-6.5 54t-3 57q0 160 106 430z" />
    <glyph glyph-name="parenright" unicode=")" horiz-adv-x="278" 
d="M139 -121h-79q65 273 65 431q0 62 -7.5 129t-15.5 110t-22.5 110.5t-19.5 95.5h79q3 -8 18 -52t19 -57l16.5 -53.5t17.5 -59t13.5 -54t12 -59.5t6.5 -54t3 -57q0 -160 -106 -430z" />
    <glyph glyph-name="asterisk" unicode="*" horiz-adv-x="444" 
d="M222 490l-57 -137l-85 52l89 113l-137 -18v97l137 -17l-81 108l84 46l50 -124l50 124l84 -46l-81 -108l137 17v-97l-137 18l89 -113l-85 -52z" />
    <glyph glyph-name="plus" unicode="+" 
d="M195 308v197h111v-197h169v-111h-169v-197h-111v197h-170v111h170z" />
    <glyph glyph-name="comma" unicode="," horiz-adv-x="222" 
d="M25 -97l41 229h131l-76 -229h-96z" />
    <glyph glyph-name="hyphen" unicode="-" horiz-adv-x="333" 
d="M44 321h245v-102h-245v102z" />
    <glyph glyph-name="period" unicode="." horiz-adv-x="222" 
d="M51 132h120v-132h-120v132z" />
    <glyph glyph-name="slash" unicode="/" horiz-adv-x="278" 
d="M71 -96h-103l239 818h102z" />
    <glyph glyph-name="zero" unicode="0" horiz-adv-x="444" 
d="M222 707q52 0 87 -12t58 -35.5t35.5 -68.5t17 -100t4.5 -140q0 -76 -3 -123t-14 -97t-32.5 -77.5t-59.5 -45t-93 -17.5t-93 17.5t-59.5 45t-32.5 77.5t-14 97t-3 123q0 85 4.5 140t17 100t35.5 68.5t58 35.5t87 12zM222 605q-43 0 -52 -43t-9 -213q0 -164 10 -210t51 -46
t51 46t10 210q0 170 -9 213t-52 43z" />
    <glyph glyph-name="one" unicode="1" horiz-adv-x="444" 
d="M49 459v131q92 51 135 108h134v-698h-151v537q-49 -41 -118 -78z" />
    <glyph glyph-name="two" unicode="2" horiz-adv-x="444" 
d="M426 0h-414v123l95 125l73 95l46.5 63t32.5 51.5t13.5 37.5t5.5 42q0 68 -53 68q-21 0 -34 -8.5t-18.5 -25.5t-7 -31t-1.5 -35h-141q-7 97 43.5 149.5t148.5 52.5q204 0 204 -180q0 -32 -9.5 -67t-29.5 -71t-38 -65t-49 -66l-47.5 -56.5t-48 -53.5t-37.5 -40h266v-108z
" />
    <glyph glyph-name="three" unicode="3" horiz-adv-x="444" 
d="M161 524h-141q0 104 48 146q44 37 152 37q99 0 145 -43.5t46 -142.5q0 -141 -95 -155v-2q62 -12 84 -55.5t22 -114.5q0 -106 -55 -154.5t-163 -48.5q-105 0 -148.5 44t-43.5 154h141v-28.5t3 -24t9 -23.5t17.5 -13.5t29.5 -6.5q23 0 37.5 9.5t21 27t8.5 33.5t2 38
q0 72 -25.5 89.5t-105.5 17.5v111q73 -3 96.5 15t23.5 88q0 83 -54 83q-34 0 -44.5 -21.5t-10.5 -59.5z" />
    <glyph glyph-name="four" unicode="4" horiz-adv-x="444" 
d="M22 159v141l157 370l12 28h185v-431h55v-108h-55v-159h-138v159h-216zM130 267h120l9 333h-2z" />
    <glyph glyph-name="five" unicode="5" horiz-adv-x="444" 
d="M175 590v-174l2 -2q31 47 101 47q83 0 116 -55.5t33 -174.5q0 -135 -50.5 -187.5t-162.5 -52.5q-91 0 -139.5 41.5t-45.5 131.5h141q0 -34 10 -50q13 -21 43 -21q40 0 51.5 30.5t11.5 107.5q0 85 -16 113q-15 27 -44 27q-28 0 -40.5 -24t-12.5 -54h-136v405h365v-108
h-227z" />
    <glyph glyph-name="six" unicode="6" horiz-adv-x="444" 
d="M218 93q37 0 51 28t14 107q0 70 -13 98.5t-51 28.5t-48.5 -31.5t-10.5 -107.5q0 -23 1 -38t6 -38t18 -35t33 -12zM417 547h-147q2 28 -9 45q-13 19 -40 19q-45 0 -54.5 -34.5t-9.5 -173.5q32 28 53.5 38t58.5 10q155 0 155 -222q0 -115 -48.5 -176.5t-161.5 -61.5
q-38 0 -68 9.5t-50.5 24.5t-35 39t-22.5 48t-12.5 57t-5.5 59t-1 62q0 67 1.5 111t6 92.5t14 78t25 58t38 44t55 24.5t74.5 9q85 0 135 -39t49 -121z" />
    <glyph glyph-name="seven" unicode="7" horiz-adv-x="444" 
d="M406 698v-133l-170 -565h-157l191 590h-239v108h375z" />
    <glyph glyph-name="eight" unicode="8" horiz-adv-x="444" 
d="M222 312q-15 0 -26.5 -5.5t-17.5 -18t-10 -22t-5.5 -28.5t-1.5 -25.5v-24.5q0 -95 61 -95t61 95v24.5t-1.5 25.5t-5.5 28.5t-10 22t-17.5 18t-26.5 5.5zM222 605q-55 0 -55 -91q0 -94 55 -94t55 94q0 91 -55 91zM222 -9q-202 0 -202 188q0 75 20.5 121t82.5 68v2
q-55 14 -76 52t-21 100q0 185 196 185t196 -185q0 -62 -21 -100t-76 -52v-2q62 -22 82.5 -68t20.5 -121q0 -188 -202 -188z" />
    <glyph glyph-name="nine" unicode="9" horiz-adv-x="444" 
d="M160 487q0 -24 1 -38.5t6 -37t18.5 -34t34.5 -11.5q63 0 63 124q0 121 -62 121q-21 0 -35 -12t-19 -35t-6 -38t-1 -39zM29 164h140q0 -33 10 -49q14 -22 42 -22q43 0 54 37q9 27 8 153v33q-46 -46 -116 -46q-75 0 -111.5 55.5t-36.5 133.5q0 248 199 248q31 0 56 -4
t44.5 -15t35 -21.5t26.5 -31l18.5 -35t12.5 -43.5t7.5 -46t4 -52.5t1.5 -54v-58.5q0 -36 -0.5 -58t-2.5 -56t-5.5 -55t-10.5 -49.5t-17.5 -45.5t-26 -36.5t-36 -30t-48 -17.5t-60.5 -7q-96 0 -143 39t-45 134z" />
    <glyph glyph-name="colon" unicode=":" horiz-adv-x="222" 
d="M51 505h120v-132h-120v132zM171 132v-132h-120v132h120z" />
    <glyph glyph-name="semicolon" unicode=";" horiz-adv-x="222" 
d="M12 -97l41 229h131l-76 -229h-96zM171 375h-120v130h120v-130z" />
    <glyph glyph-name="less" unicode="&#x3c;" 
d="M162 249l297 -162v-111l-417 225v99l417 227v-111z" />
    <glyph glyph-name="equal" unicode="=" 
d="M475 406v-111h-450v111h450zM475 210v-111h-450v111h450z" />
    <glyph glyph-name="greater" unicode="&#x3e;" 
d="M41 87l297 162l-297 167v111l417 -227v-99l-417 -225v111z" />
    <glyph glyph-name="question" unicode="?" horiz-adv-x="444" 
d="M265 193h-103v103q0 44 54 132q19 31 27 46t17 40.5t9 45.5q0 72 -58 72q-19 0 -31 -8.5t-16.5 -27t-5.5 -31t-1 -36.5h-120q0 23 0.5 34t3.5 37t9.5 40.5t20.5 34.5t33.5 31t50.5 19.5t70 8.5q80 0 131 -42.5t51 -120.5q0 -94 -71 -179l-20 -24.5t-20.5 -26t-14.5 -22
t-12.5 -27.5t-3.5 -27v-72zM275 0h-120v120h120v-120z" />
    <glyph glyph-name="at" unicode="@" horiz-adv-x="795" 
d="M420 483q-44 0 -71.5 -47.5t-27.5 -116.5q0 -37 14 -62.5t43 -25.5q107 0 107 175q0 35 -17.5 56t-47.5 21zM611 540l-35 -195q-16 -86 -16 -98q0 -16 19 -16q37 0 69.5 54.5t33.5 121.5q1 48 -10 87t-29 65t-43 46t-49.5 31t-52 17.5t-46.5 8.5t-36 2
q-126 0 -214.5 -88.5t-88.5 -213.5q0 -126 88.5 -215t214.5 -89q60 0 117 24.5t95 63.5h91q-49 -73 -130.5 -115.5t-172.5 -42.5q-155 0 -264 109.5t-109 264.5t109 263.5t264 108.5q73 0 132.5 -21t96 -53.5t62 -74t35.5 -79.5t10 -72q0 -116 -66 -199t-153 -83
q-23 0 -43 15t-25 41l-2 2q-45 -58 -116 -58q-63 0 -94.5 53.5t-31.5 120.5q0 93 49.5 160t137.5 67q75 0 99 -58h2l9 45h93z" />
    <glyph glyph-name="A" unicode="A" horiz-adv-x="611" 
d="M157 0h-149l200 722h199l196 -722h-159l-40 160h-206zM372 271l-73 312h-2l-69 -312h144z" />
    <glyph glyph-name="B" unicode="B" horiz-adv-x="611" 
d="M216 316v-205h84q14 0 23.5 1t26.5 6t27.5 15t18.5 30.5t8 49.5q0 51 -23 77t-77 26h-88zM216 611v-184h101q30 0 54.5 22t24.5 70q0 40 -24.5 66t-62.5 26h-93zM332 0h-267v722h268q47 0 82 -8t65.5 -27.5t46.5 -57.5t16 -94q0 -64 -31.5 -105.5t-91.5 -53.5v-2
q76 -11 105.5 -56.5t29.5 -126.5q0 -191 -223 -191z" />
    <glyph glyph-name="C" unicode="C" horiz-adv-x="556" 
d="M305 -12q-173 0 -222 126q-27 68 -27 224v23q0 156 18 220q33 122 155 146q34 7 76 7q113 0 164 -60.5t46 -179.5h-148q0 72 -14 102t-48 30q-60 0 -78 -57.5t-18 -207.5t18 -207.5t78 -57.5q23 0 37.5 12.5t20.5 33.5t8 42.5t3 45.5v13h149q0 -140 -53.5 -197.5
t-164.5 -57.5z" />
    <glyph glyph-name="D" unicode="D" horiz-adv-x="611" 
d="M217 611v-500h73q67 0 88.5 54t21.5 196q0 38 -0.5 56.5t-2 50.5t-5.5 48t-11.5 37.5t-18.5 32t-28 18t-39 7.5h-78zM66 0v722h252q73 0 120 -23t72 -72.5t34 -110t9 -151.5q0 -119 -9 -167q-36 -198 -232 -198h-246z" />
    <glyph glyph-name="E" unicode="E" 
d="M465 0h-402v722h394v-111h-243v-178h224v-111h-224v-211h251v-111z" />
    <glyph glyph-name="F" unicode="F" horiz-adv-x="444" 
d="M211 0h-151v722h375v-111h-224v-185h214v-111h-214v-315z" />
    <glyph glyph-name="G" unicode="G" horiz-adv-x="611" 
d="M543 500h-150q0 22 -1.5 39t-7 34t-15 28t-26.5 18t-40 7q-17 0 -31 -5t-23.5 -17.5t-16.5 -24.5t-11.5 -34.5t-7 -38.5t-3.5 -46.5t-1 -48v-52.5q0 -115 9.5 -170.5t31.5 -75.5t67 -20q35 0 75 14v160h-82v111h233v-366q-123 -24 -204 -24q-64 0 -109.5 8.5t-77 29.5
t-50.5 48t-29 73.5t-13.5 95.5t-3.5 124q0 48 1 78.5t6.5 73t15.5 70t28.5 57.5t45.5 47.5t67 29t92 11.5q113 0 175.5 -61t55.5 -173z" />
    <glyph glyph-name="H" unicode="H" horiz-adv-x="611" 
d="M219 433h173v289h151v-722h-151v322h-173v-322h-151v722h151v-289z" />
    <glyph glyph-name="I" unicode="I" horiz-adv-x="278" 
d="M214 0h-151v722h151v-722z" />
    <glyph glyph-name="J" unicode="J" 
d="M293 722h151v-554q0 -89 -60.5 -134.5t-148.5 -45.5q-52 0 -89.5 6.5t-61.5 23t-38 34t-21 51t-8.5 61.5t-1.5 76h154q0 -6 -0.5 -25.5t0 -29t1.5 -26t5.5 -25.5t11.5 -19t19.5 -14.5t28.5 -4.5q25 0 41.5 19t16.5 43v564z" />
    <glyph glyph-name="K" unicode="K" horiz-adv-x="556" 
d="M207 413l177 309h166l-202 -324l202 -398h-170l-173 370h-2v-370h-151v722h151v-309h2z" />
    <glyph glyph-name="L" unicode="L" horiz-adv-x="444" 
d="M441 0h-377v722h151v-602h226v-120z" />
    <glyph glyph-name="M" unicode="M" horiz-adv-x="833" 
d="M207 0h-147v722h243l113 -491h2l120 491h235v-722h-147v557h-2l-139 -557h-144l-132 557h-2v-557z" />
    <glyph glyph-name="N" unicode="N" horiz-adv-x="667" 
d="M205 0h-141v722h204l192 -500h2v500h141v-722h-199l-197 528h-2v-528z" />
    <glyph glyph-name="O" unicode="O" horiz-adv-x="611" 
d="M305 96q60 0 78 57.5t18 207.5t-18 207.5t-78 57.5t-78 -57.5t-18 -207.5t18 -207.5t78 -57.5zM305 -12q-173 0 -222 126q-27 68 -27 224v23q0 156 18 220q33 122 155 146q34 7 76 7q172 0 221 -123q28 -68 28 -224v-26q0 -156 -18 -220q-35 -124 -161 -147
q-32 -6 -70 -6z" />
    <glyph glyph-name="P" unicode="P" horiz-adv-x="556" 
d="M215 611v-206h84q33 0 54.5 29.5t21.5 67.5q0 109 -84 109h-76zM64 0v722h272q192 0 192 -216q0 -29 -3.5 -54t-16.5 -55.5t-33.5 -52t-58.5 -36t-89 -14.5h-112v-294h-151z" />
    <glyph glyph-name="Q" unicode="Q" horiz-adv-x="611" 
d="M607 111v-111h-213q-6 0 -13 -0.5t-16 -1.5t-14 -1q-30 -4 -44 -4q-66 0 -111.5 15t-73 41t-42.5 74.5t-19.5 101.5t-4.5 136q0 156 18 220q33 122 155 146q34 7 76 7q172 0 221 -123q28 -68 28 -224v-26q0 -113 -20.5 -173.5t-67.5 -99.5l2 -2q7 2 37 13.5t39 11.5h63z
M305 101q60 0 78 57t18 203q0 150 -18 207.5t-78 57.5t-78 -57.5t-18 -207.5q0 -146 18 -203t78 -57z" />
    <glyph glyph-name="R" unicode="R" horiz-adv-x="556" 
d="M211 611v-201h67q41 0 59 32t18 74q0 95 -77 95h-67zM211 299v-299h-151v722h279q79 0 124 -49t45 -140q0 -155 -134 -177v-2q18 -2 27.5 -3.5t32 -10.5t35.5 -22.5t24.5 -41t11.5 -64.5q0 -176 17 -212h-148q-6 13 -9.5 25.5t-5 30.5t-2 25.5t0 31.5t0.5 27q0 81 -8 104
q-18 55 -100 55h-39z" />
    <glyph glyph-name="S" unicode="S" horiz-adv-x="556" 
d="M511 197q0 -67 -22 -111t-62.5 -64t-78.5 -27t-89 -7q-67 0 -113 18.5t-67.5 53t-29 73.5t-4.5 90h151q0 -25 1 -40t5.5 -34t13.5 -29t25.5 -17t40.5 -7q37 0 56.5 22t19.5 60q0 35 -31.5 65t-76 54.5t-89 53t-76 74.5t-31.5 106q0 203 238 203q112 0 164.5 -52.5
t45.5 -164.5h-147q0 50 -14.5 79.5t-55.5 29.5q-37 0 -57.5 -20t-20.5 -57t31.5 -66.5t76 -52.5t89 -50t76 -73.5t31.5 -109.5z" />
    <glyph glyph-name="T" unicode="T" 
d="M6 722h487v-120h-168v-602h-151v602h-168v120z" />
    <glyph glyph-name="U" unicode="U" horiz-adv-x="611" 
d="M400 722h151v-512q0 -93 -59 -157.5t-186 -64.5q-122 0 -184 58.5t-62 163.5v512h151v-502q0 -124 93 -124q96 0 96 124v502z" />
    <glyph glyph-name="V" unicode="V" horiz-adv-x="556" 
d="M183 0l-178 722h157l112 -525h2l126 525h149l-191 -722h-177z" />
    <glyph glyph-name="W" unicode="W" horiz-adv-x="889" 
d="M159 0l-160 722h155l94 -507h2l114 507h178l108 -507h2l90 507h148l-160 -722h-167l-113 528h-2l-125 -528h-164z" />
    <glyph glyph-name="X" unicode="X" horiz-adv-x="556" 
d="M190 378l-174 344h172l103 -237l101 237h157l-180 -357l183 -365h-171l-111 249l-111 -249h-156z" />
    <glyph glyph-name="Y" unicode="Y" horiz-adv-x="556" 
d="M196 0v250l-189 472h165l108 -305l115 305h154l-202 -472v-250h-151z" />
    <glyph glyph-name="Z" unicode="Z" 
d="M36 611v111h435v-131l-304 -480h311v-111h-456v132l303 479h-289z" />
    <glyph glyph-name="bracketleft" unicode="[" horiz-adv-x="278" 
d="M44 -121v876h212v-87h-101v-702h101v-87h-212z" />
    <glyph glyph-name="backslash" unicode="\" horiz-adv-x="250" 
d="M-83 722h107l308 -722h-107z" />
    <glyph glyph-name="bracketright" unicode="]" horiz-adv-x="278" 
d="M234 755v-876h-212v87h101v702h-101v87h212z" />
    <glyph glyph-name="asciicircum" unicode="^" 
d="M129 274h-126l182 424h130l182 -424h-126l-121 299z" />
    <glyph glyph-name="underscore" unicode="_" 
d="M500 -125h-500v50h500v-50z" />
    <glyph glyph-name="grave" unicode="`" horiz-adv-x="278" 
d="M0 722h135l90 -143h-65z" />
    <glyph glyph-name="a" unicode="a" 
d="M301 244q-4 0 -20 -0.5t-20 -1t-17 -1.5t-16.5 -3t-13 -5t-13 -7.5t-9 -11t-7.5 -14.5t-4 -19t-2 -24q0 -80 52 -80q17 0 30 6t20.5 18.5t12 23.5t6 31t2 30.5t0 31.5t-0.5 26zM439 346v-252q0 -22 7 -94h-131l-6 67h-2q-44 -77 -132 -77q-69 0 -101.5 44.5t-32.5 116.5
q0 48 15.5 82t37.5 51.5t60 26.5t68.5 11t78.5 1v39q0 38 -11 56t-46 18q-33 0 -43 -20t-10 -57h-138q0 87 52 123q44 33 132 33q65 0 107 -12.5t61.5 -38t26.5 -52.5t7 -66z" />
    <glyph glyph-name="b" unicode="b" 
d="M254 77q37 0 48.5 39.5t11.5 140.5q0 109 -12 138q-13 33 -48 33q-14 0 -24 -4.5t-16 -17t-9.5 -23.5t-5 -35t-2 -39t-0.5 -47v-5q0 -101 11.5 -140.5t45.5 -39.5zM56 0v722h141v-265h2q39 58 115 58q29 0 52 -10t37.5 -22.5t24.5 -38.5t14.5 -42t7 -51t2.5 -47.5v-47.5
v-10q0 -31 -0.5 -48t-3 -48t-7.5 -49.5t-15 -42t-25 -36.5t-38 -22.5t-52 -9.5q-84 0 -119 66h-2v-56h-134z" />
    <glyph glyph-name="c" unicode="c" 
d="M454 325h-141q0 55 -14.5 77.5t-48.5 22.5q-42 0 -53.5 -35t-11.5 -123q0 -115 13 -151t52 -36q65 0 65 106h141q0 -196 -206 -196q-53 0 -91 13.5t-60 35t-34.5 58t-16.5 73t-4 89.5q0 60 6.5 99.5t26.5 78.5t63 58.5t110 19.5q204 0 204 -190z" />
    <glyph glyph-name="d" unicode="d" 
d="M244 77q34 0 45.5 39.5t11.5 140.5q0 110 -12 139q-12 32 -45 32q-15 0 -25.5 -4.5t-17 -17t-10 -23.5t-5 -35t-2 -39t-0.5 -47v-5q0 -101 11.5 -140.5t48.5 -39.5zM442 0h-134v56h-2q-35 -66 -119 -66q-29 0 -52 9.5t-38 22.5t-25 37t-15 42t-7.5 49.5t-3 48t-0.5 47.5
v10v47.5t2.5 47.5t7 51t14.5 42t24.5 38.5t37.5 22.5t52 10q76 0 115 -58h2v265h141v-722z" />
    <glyph glyph-name="e" unicode="e" 
d="M186 309h129v32.5t-3.5 30t-9.5 30t-19.5 18t-32.5 8.5q-23 0 -37 -11t-19.5 -33.5t-6.5 -36.5t-1 -38zM456 230h-270q0 -30 1.5 -50t7 -46.5t19.5 -40t36 -13.5q60 0 60 90h143q-3 -85 -54 -131q-52 -49 -149 -49q-53 0 -91 13.5t-60 35t-34.5 58t-16.5 73t-4 89.5
q0 60 6.5 99.5t26.5 78.5t63 58.5t110 19.5q55 0 94.5 -14.5t61.5 -38.5t34 -62.5t15 -77t1 -92.5z" />
    <glyph glyph-name="f" unicode="f" horiz-adv-x="278" 
d="M273 725v-90q-41 3 -55 -13t-14 -56v-61h66v-87h-66v-418h-141v418h-63v87h64q0 44 -0.5 79t6.5 62t22.5 45t47.5 27t83 9q16 0 50 -2z" />
    <glyph glyph-name="g" unicode="g" 
d="M182 237v-17v-20.5t0.5 -20t2.5 -21.5t4.5 -19t7.5 -18.5t11 -13.5t15 -10t20 -3q36 0 47 36t11 124q0 94 -10.5 134t-46.5 40q-39 0 -50.5 -36.5t-11.5 -154.5zM308 505h134v-526q0 -19 -1 -32.5t-11 -42.5t-28.5 -48t-57.5 -34.5t-94 -15.5q-90 0 -143 32.5t-55 117.5
h138q0 -35 12 -51q14 -20 47 -20q52 0 52 84v97h-2q-32 -59 -107 -59q-31 0 -55 8.5t-39.5 19.5t-26 33t-16 38t-8 47t-3 47t-0.5 49v14q0 36 1 58t5 56t13.5 54.5t25.5 42t42.5 31.5t61.5 10q84 0 113 -69h2v59z" />
    <glyph glyph-name="h" unicode="h" 
d="M444 0h-141v348q0 39 -11 59.5t-42 20.5t-42 -20.5t-11 -59.5v-348h-141v722h141v-268h2q20 33 50 47q28 14 69 14q53 0 89.5 -29.5t36.5 -80.5v-405z" />
    <glyph glyph-name="i" unicode="i" horiz-adv-x="278" 
d="M209 505v-505h-141v505h141zM68 722h141v-111h-141v111z" />
    <glyph glyph-name="j" unicode="j" horiz-adv-x="278" 
d="M68 505h141v-551q0 -77 -32.5 -111t-98.5 -34q-23 0 -47 3v89q10 0 17 2t13.5 11t6.5 26v565zM68 722h141v-111h-141v111z" />
    <glyph glyph-name="k" unicode="k" 
d="M194 0h-141v722h141v-430h2l127 213h147l-143 -225l159 -280h-159l-131 275h-2v-275z" />
    <glyph glyph-name="l" unicode="l" horiz-adv-x="278" 
d="M68 722h141v-722h-141v722z" />
    <glyph glyph-name="m" unicode="m" horiz-adv-x="722" 
d="M186 505v-51h2q38 61 119 61q76 0 113 -64q48 64 131 64q53 0 89.5 -29.5t36.5 -80.5v-405h-141v348q0 39 -11 59.5t-42 20.5t-42 -20.5t-11 -59.5v-348h-138v348q0 39 -11 59.5t-42 20.5t-42 -20.5t-11 -59.5v-348h-141v505h141z" />
    <glyph glyph-name="n" unicode="n" 
d="M197 505v-51h2q20 33 50 47q28 14 69 14q53 0 89.5 -29.5t36.5 -80.5v-405h-141v348q0 39 -11 59.5t-42 20.5t-42 -20.5t-11 -59.5v-348h-141v505h141z" />
    <glyph glyph-name="o" unicode="o" 
d="M250 80q39 0 52 36t13 151q0 88 -11.5 123t-53.5 35t-53.5 -35t-11.5 -123q0 -115 13 -151t52 -36zM250 -10q-53 0 -91 13.5t-60 35t-34.5 58t-16.5 73t-4 89.5q0 60 6.5 99.5t26.5 78.5t63 58.5t110 19.5t110 -19.5t63 -58.5t26.5 -78.5t6.5 -99.5q0 -53 -4 -89.5
t-16.5 -73t-34.5 -58t-60 -35t-91 -13.5z" />
    <glyph glyph-name="p" unicode="p" 
d="M254 77q37 0 48.5 39.5t11.5 140.5q0 109 -12 138q-13 33 -48 33q-14 0 -24 -4.5t-16 -17t-9.5 -23.5t-5 -35t-2 -39t-0.5 -47v-5q0 -101 11.5 -140.5t45.5 -39.5zM56 505h134v-56h2q35 66 119 66q29 0 52 -9.5t38 -22.5t25 -37t15 -42t7.5 -49.5t3 -48t0.5 -47.5v-10
v-47.5t-2.5 -47.5t-7 -51t-14.5 -42t-24.5 -38.5t-37.5 -22.5t-52 -10q-76 0 -115 58h-2v-265h-141v722z" />
    <glyph glyph-name="q" unicode="q" 
d="M246 77q34 0 45.5 39.5t11.5 140.5q0 110 -12 139q-12 32 -45 32q-15 0 -25.5 -4.5t-17 -17t-10 -23.5t-5 -35t-2 -39t-0.5 -47v-5q0 -101 11.5 -140.5t48.5 -39.5zM444 505v-722h-141v265h-2q-39 -58 -115 -58q-29 0 -52 10t-37.5 22.5t-24.5 38.5t-14.5 42t-7 51
t-2.5 47.5v47.5v10q0 31 0.5 48t3 48t7.5 49.5t15 42t25 36.5t38 22.5t52 9.5q84 0 119 -66h2v56h134z" />
    <glyph glyph-name="r" unicode="r" horiz-adv-x="333" 
d="M56 505h134v-65h2q34 75 131 75v-126q-36 2 -61 -4.5t-37.5 -17t-19 -29t-7.5 -31t-1 -32.5v-275h-141v505z" />
    <glyph glyph-name="s" unicode="s" horiz-adv-x="444" 
d="M29 162h138q-2 -41 7 -61q12 -24 51 -24q22 0 37 14t15 38q0 29 -25.5 50.5t-62 36t-73 32t-62 49t-25.5 76.5q0 51 32 84.5t74.5 45.5t92.5 12q79 0 130 -39t45 -116h-138q0 52 -14 65q-11 11 -36 11q-48 0 -48 -54q0 -22 25.5 -39.5t62 -33t73 -34.5t62 -52.5
t25.5 -78.5q0 -67 -51.5 -110.5t-137.5 -43.5q-102 0 -152.5 36.5t-44.5 135.5z" />
    <glyph glyph-name="t" unicode="t" horiz-adv-x="278" 
d="M-1 418v87h57v80l141 63v-143h73v-87h-73v-270q0 -25 1.5 -35t11.5 -19t32 -9q18 0 25 2v-87q-47 -5 -73 -5q-43 0 -72.5 12.5t-42.5 32.5t-18 36t-5 31v311h-57z" />
    <glyph glyph-name="u" unicode="u" 
d="M303 0v51h-2q-22 -34 -50 -47q-28 -14 -69 -14q-53 0 -89.5 29.5t-36.5 80.5v405h141v-350q0 -38 11 -58t42 -20t42 20t11 58v350h141v-405q0 -45 5 -100h-146z" />
    <glyph glyph-name="v" unicode="v" horiz-adv-x="444" 
d="M142 0l-134 505h143l71 -379h2l74 379h138l-139 -505h-155z" />
    <glyph glyph-name="w" unicode="w" horiz-adv-x="778" 
d="M137 0l-126 505h140l69 -380h2l97 380h146l89 -380h2l76 380h135l-137 -505h-148l-91 345h-2l-102 -345h-150z" />
    <glyph glyph-name="x" unicode="x" 
d="M238 177l-93 -177h-140l149 265l-137 240h158l74 -153l85 153h141l-135 -242l145 -263h-159z" />
    <glyph glyph-name="y" unicode="y" horiz-adv-x="444" 
d="M92 -191l54 187l-137 509h140l72 -355h2l76 355h136l-195 -696h-148z" />
    <glyph glyph-name="z" unicode="z" horiz-adv-x="389" 
d="M363 505v-100l-201 -315h204v-90h-343v100l198 315h-191v90h333z" />
    <glyph glyph-name="braceleft" unicode="{" horiz-adv-x="274" 
d="M50 471v154q0 67 26.5 98.5t89.5 31.5h74v-79q-79 0 -79 -110v-112q0 -57 -17 -86t-65 -40v-2q48 -7 65 -42.5t17 -92.5v-124q0 -109 79 -109v-79h-65q-73 0 -99 34.5t-26 113.5v156q0 100 -82 100v87q44 0 63 28.5t19 72.5z" />
    <glyph glyph-name="bar" unicode="|" horiz-adv-x="250" 
d="M69 -250v1000h111v-1000h-111z" />
    <glyph glyph-name="braceright" unicode="}" horiz-adv-x="274" 
d="M229 625v-154q0 -44 19 -72.5t63 -28.5v-87q-82 0 -82 -100v-156q0 -79 -26 -113.5t-99 -34.5h-65v79q79 0 79 109v124q0 57 17 92.5t65 42.5v2q-48 11 -65 40t-17 86v112q0 110 -79 110v79h74q63 0 89.5 -31.5t26.5 -98.5z" />
    <glyph glyph-name="asciitilde" unicode="~" 
d="M418 356l57 -73q-39 -69 -62 -89q-30 -28 -67 -28q-34 0 -104 33t-82 33q-10 0 -19 -4t-15 -9t-13.5 -16t-10.5 -16.5t-10 -19.5t-9 -17l-58 74q28 56 59.5 90t74.5 34q35 0 102 -33t85 -33q11 0 20 4t17 14t12.5 16.5t12 21t10.5 18.5z" />
    <glyph glyph-name="uni00A0" unicode="&#xa0;" horiz-adv-x="222" 
 />
    <glyph glyph-name="exclamdown" unicode="&#xa1;" horiz-adv-x="333" 
d="M214 322l22 -529h-140l22 529h96zM226 515v-120h-120v120h120z" />
    <glyph glyph-name="cent" unicode="&#xa2;" horiz-adv-x="444" 
d="M159 238l85 184q-9 3 -22 3q-42 0 -53.5 -35t-11.5 -123v-29h2zM279 382l-114 -245q6 -31 19 -43.5t38 -12.5q65 0 65 108h141q0 -198 -206 -198q-74 0 -115 24l-39 -78l-44 24l43 84q-51 56 -51 214q0 60 6.5 99.5t26.5 78.5t63 58.5t110 19.5q35 0 62 -6l38 82l44 -22
l-35 -75q95 -38 95 -169h-141q0 36 -6 57z" />
    <glyph glyph-name="sterling" unicode="&#xa3;" horiz-adv-x="444" 
d="M318 332h-119v-230h220v-102h-417v102h56v230h-58v102h58v87q0 186 183 186q97 0 140.5 -45t42.5 -136h-118q1 32 -12 55.5t-40 23.5q-55 0 -55 -78v-93h119v-102z" />
    <glyph glyph-name="currency" unicode="&#xa4;" horiz-adv-x="444" 
d="M-20 137l42 44q-35 65 -35 128q0 69 35 129l-42 42l76 80l42 -43q62 38 123 38q67 0 127 -38l43 43l72 -80l-41 -42q36 -60 36 -128q0 -76 -36 -129l41 -44l-72 -79l-43 43q-63 -38 -123 -38q-69 0 -127 38l-42 -43zM223 447q-51 0 -84.5 -42.5t-33.5 -94.5t33.5 -95.5
t84.5 -43.5t84 43.5t33 95.5t-33 94.5t-84 42.5z" />
    <glyph glyph-name="yen" unicode="&#xa5;" horiz-adv-x="444" 
d="M10 97v90h135v79h-135v90h103l-153 342h164l100 -271l106 271h153l-163 -342h114v-90h-148v-79h148v-90h-148v-97h-141v97h-135z" />
    <glyph glyph-name="brokenbar" unicode="&#xa6;" horiz-adv-x="250" 
d="M69 -175v350h111v-350h-111zM180 675v-350h-111v350h111z" />
    <glyph glyph-name="section" unicode="&#xa7;" horiz-adv-x="444" 
d="M229 291q22 13 32 19.5t22.5 22.5t12.5 33q0 28 -20.5 42.5t-56.5 26.5q-72 -27 -72 -68q0 -46 82 -76zM391 703v-112q-93 41 -144 41q-24 0 -41 -10t-17 -32q0 -21 23.5 -36.5t56.5 -27.5t66.5 -28t57 -46.5t23.5 -73.5q0 -78 -88 -129q78 -37 78 -113q0 -43 -19 -73
t-51.5 -46t-67.5 -22.5t-75 -6.5q-82 0 -156 29v117q101 -44 154 -44q64 0 64 49q0 21 -23.5 35.5t-57 26t-67 26.5t-57 45.5t-23.5 74.5q0 41 27 74.5t68 53.5q-40 23 -57 50.5t-17 71.5q0 60 48.5 98.5t140.5 38.5q65 0 154 -31z" />
    <glyph glyph-name="dieresis" unicode="&#xa8;" horiz-adv-x="278" 
d="M172 698h111v-108h-111v108zM-5 698h111v-108h-111v108z" />
    <glyph glyph-name="copyright" unicode="&#xa9;" horiz-adv-x="830" 
d="M416 734q155 0 263 -108.5t108 -263.5t-108.5 -264.5t-262.5 -109.5q-155 0 -264 109.5t-109 264.5t109 263.5t264 108.5zM416 58q124 0 212.5 89.5t88.5 214.5t-88.5 213.5t-212.5 88.5q-126 0 -214.5 -88.5t-88.5 -213.5q0 -126 88.5 -215t214.5 -89zM416 138
q-47 0 -78.5 13.5t-47.5 31t-24.5 53t-9.5 58.5t-1 68q0 32 0.5 48.5t3.5 44.5t8.5 43t17.5 34.5t29 29t42.5 16.5t59.5 7q144 0 138 -144h-98q0 43 -11 60.5t-38 17.5q-33 0 -43.5 -35.5t-10.5 -116.5q0 -102 10.5 -132.5t45.5 -30.5q23 0 34.5 14.5t13.5 29t3 37.5v6h98
q0 -84 -35 -118.5t-107 -34.5z" />
    <glyph glyph-name="ordfeminine" unicode="&#xaa;" horiz-adv-x="300" 
d="M185 571q-50 -1 -62 -9q-17 -11 -17 -43q0 -49 33 -49q11 0 19.5 3.5t13.5 11t8 14.5t4 19l1.5 18t0 19.5t-0.5 15.5zM194 425l-4 40h-2q-29 -47 -85 -47q-45 0 -66 27t-21 71q0 29 10 49t24 30.5t39.5 16t44.5 6t51 0.5v24q0 23 -7 34t-30 11q-22 0 -28 -12t-6 -35h-90
q0 52 33 74q28 20 86 20q79 0 105.5 -26t26.5 -75v-152q0 -18 4 -56h-85z" />
    <glyph glyph-name="guillemotleft" unicode="&#xab;" horiz-adv-x="444" 
d="M120 75l-91 197l92 192h116l-88 -192l86 -197h-115zM298 75l-91 197l92 192h116l-88 -192l86 -197h-115z" />
    <glyph glyph-name="logicalnot" unicode="&#xac;" 
d="M364 105v190h-339v111h450v-301h-111z" />
    <glyph glyph-name="uni00AD" unicode="&#xad;" horiz-adv-x="333" 
d="M44 321h245v-102h-245v102z" />
    <glyph glyph-name="registered" unicode="&#xae;" horiz-adv-x="830" 
d="M416 734q155 0 263 -108.5t108 -263.5t-108.5 -264.5t-262.5 -109.5q-155 0 -264 109.5t-109 264.5t109 263.5t264 108.5zM416 58q124 0 212.5 89.5t88.5 214.5t-88.5 213.5t-212.5 88.5q-126 0 -214.5 -88.5t-88.5 -213.5q0 -126 88.5 -215t214.5 -89zM369 326v-179h-98
v433h181q51 0 80.5 -29.5t29.5 -84.5q0 -92 -87 -106v-2q85 -4 85 -84q0 -105 11 -127h-96q-13 26 -13 84v16.5v16.5t-0.5 14t-2.5 13.5t-5 11t-8.5 10.5l-12.5 6.5t-17 5t-22 1.5h-25zM369 508v-121h44q27 0 39 19.5t12 44.5q0 57 -51 57h-44z" />
    <glyph glyph-name="macron" unicode="&#xaf;" horiz-adv-x="278" 
d="M-6 605v72h289v-72h-289z" />
    <glyph glyph-name="degree" unicode="&#xb0;" horiz-adv-x="400" 
d="M350 557q0 -62 -44 -106t-106 -44t-106 44t-44 106q-1 61 43.5 105.5t106.5 44.5t106 -44.5t44 -105.5zM129 557q0 -30 21 -50.5t51 -20.5q29 0 49.5 20.5t20.5 50.5q0 29 -20.5 50t-50.5 21q-29 0 -50.5 -21t-20.5 -50z" />
    <glyph glyph-name="plusminus" unicode="&#xb1;" 
d="M195 382v133h111v-133h169v-111h-169v-133h-111v133h-170v111h170zM25 -12v111h450v-111h-450z" />
    <glyph glyph-name="twosuperior" unicode="&#xb2;" horiz-adv-x="266" 
d="M94 348h173v-65h-269v74l54.5 65.5l43 51.5l30.5 37t22.5 30t13 22.5t8 21.5t1.5 20q0 37 -35 37q-25 0 -32 -15t-7 -41h-92q-4 58 29 90q33 31 96 31q132 0 132 -108q0 -17 -5.5 -36t-13 -35t-22 -37t-24 -33.5t-28.5 -33.5t-27 -28.5l-27 -26.5z" />
    <glyph glyph-name="threesuperior" unicode="&#xb3;" horiz-adv-x="266" 
d="M96 597h-91q0 63 31 88q29 22 99 22q64 0 94 -26.5t30 -85.5q0 -84 -62 -93v-2q41 -6 55 -32t14 -69q0 -64 -35.5 -93.5t-106.5 -29.5q-68 0 -96.5 27t-28.5 93h92q0 -28 4 -40q9 -19 34 -19q45 0 45 66q0 43 -16.5 54t-68.5 11v66q47 -2 62.5 9t15.5 53q0 50 -35 50
q-36 0 -36 -49z" />
    <glyph glyph-name="acute" unicode="&#xb4;" horiz-adv-x="278" 
d="M143 722h135l-160 -143h-65z" />
    <glyph glyph-name="mu" unicode="&#xb5;" 
d="M303 0v51h-2q-36 -59 -104 -61v-181h-141v696h141v-350q0 -38 11 -58t42 -20t42 20t11 58v350h141v-505h-141z" />
    <glyph glyph-name="paragraph" unicode="&#xb6;" horiz-adv-x="550" 
d="M365 -96v698h-68v-698h-120v469q-76 0 -116.5 47t-40.5 124q0 97 50.5 137.5t149.5 40.5h309v-120h-44v-698h-120z" />
    <glyph glyph-name="periodcentered" unicode="&#xb7;" horiz-adv-x="222" 
d="M51 289h120v-132h-120v132z" />
    <glyph glyph-name="cedilla" unicode="&#xb8;" horiz-adv-x="278" 
d="M16 -200l19 40q42 -16 65 -16q61 0 61 41q0 27 -33.5 33.5t-52.5 -5.5l-22 19l66 88h49l-44 -58l2 -2q12 4 22 4q38 0 65 -19.5t27 -55.5q0 -47 -36 -71t-85 -24q-44 0 -103 26z" />
    <glyph glyph-name="onesuperior" unicode="&#xb9;" horiz-adv-x="266" 
d="M25 559v78q61 32 88 70h87v-424h-98v322q-30 -23 -77 -46z" />
    <glyph glyph-name="ordmasculine" unicode="&#xba;" horiz-adv-x="300" 
d="M150 472q26 0 34 22t8 91q0 53 -7.5 74t-34.5 21t-34.5 -21t-7.5 -74q0 -69 8 -91t34 -22zM150 418q-81 0 -107.5 40.5t-26.5 121.5q0 75 26 114.5t108 39.5t108 -39.5t26 -114.5q0 -81 -26.5 -121.5t-107.5 -40.5z" />
    <glyph glyph-name="guillemotright" unicode="&#xbb;" horiz-adv-x="444" 
d="M324 464l91 -197l-92 -192h-116l88 192l-86 197h115zM146 464l91 -197l-92 -192h-116l88 192l-86 197h115z" />
    <glyph glyph-name="onequarter" unicode="&#xbc;" horiz-adv-x="666" 
d="M436 160h78l6 200h-2zM596 0h-90v95h-140v85l110 239h120v-259h36v-65h-36v-95zM25 559v78q61 32 88 70h87v-424h-98v322q-30 -23 -77 -46zM468 733l-266 -761h-62l263 761h65z" />
    <glyph glyph-name="onehalf" unicode="&#xbd;" horiz-adv-x="666" 
d="M25 559v78q61 32 88 70h87v-424h-98v322q-30 -23 -77 -46zM463 733l-266 -761h-62l263 761h65zM478 65h173v-65h-269v74l54.5 65.5l43 51.5l30.5 37t22.5 30t13 22.5t8 21.5t1.5 20q0 37 -35 37q-25 0 -32 -15t-7 -41h-92q-4 58 29 90q33 31 96 31q132 0 132 -108
q0 -17 -5.5 -36t-13 -35t-22 -37t-24 -33.5t-28.5 -33.5t-27 -28.5l-27 -26.5z" />
    <glyph glyph-name="threequarters" unicode="&#xbe;" horiz-adv-x="666" 
d="M458 160h78l6 200h-2zM618 0h-90v95h-140v85l110 239h120v-259h36v-65h-36v-95zM98 597h-91q0 63 31 88q29 22 99 22q64 0 94 -26.5t30 -85.5q0 -84 -62 -93v-2q41 -6 55 -32t14 -69q0 -64 -35.5 -93.5t-106.5 -29.5q-68 0 -96.5 27t-28.5 93h92q0 -28 4 -40
q9 -19 34 -19q45 0 45 66q0 43 -16.5 54t-68.5 11v66q47 -2 62.5 9t15.5 53q0 50 -35 50q-36 0 -36 -49zM510 733l-266 -761h-62l263 761h65z" />
    <glyph glyph-name="questiondown" unicode="&#xbf;" horiz-adv-x="444" 
d="M179 322h103v-103q0 -44 -54 -132q-19 -31 -27 -46t-17 -40.5t-9 -45.5q0 -72 58 -72q19 0 31 8.5t16.5 27t5.5 31t1 36.5h120q0 -23 -0.5 -34t-3.5 -37t-9.5 -40.5t-20.5 -34.5t-33.5 -31t-50.5 -19.5t-70 -8.5q-80 0 -131 42.5t-51 120.5q0 94 71 179l20 24.5t20.5 26
t14.5 22t12.5 27.5t3.5 27v72zM169 515h120v-120h-120v120z" />
    <glyph glyph-name="Agrave" unicode="&#xc0;" horiz-adv-x="611" 
d="M157 0h-149l200 722h199l196 -722h-159l-40 160h-206zM372 271l-73 312h-2l-69 -312h144zM167 939h135l90 -143h-65z" />
    <glyph glyph-name="Aacute" unicode="&#xc1;" horiz-adv-x="611" 
d="M157 0h-149l200 722h199l196 -722h-159l-40 160h-206zM372 271l-73 312h-2l-69 -312h144zM310 939h135l-160 -143h-65z" />
    <glyph glyph-name="Acircumflex" unicode="&#xc2;" horiz-adv-x="611" 
d="M157 0h-149l200 722h199l196 -722h-159l-40 160h-206zM372 271l-73 312h-2l-69 -312h144zM375 796l-70 89l-71 -89h-91l106 143h111l108 -143h-93z" />
    <glyph glyph-name="Atilde" unicode="&#xc3;" horiz-adv-x="611" 
d="M157 0h-149l200 722h199l196 -722h-159l-40 160h-206zM372 271l-73 312h-2l-69 -312h144zM420 924h61q-9 -52 -32 -82q-32 -44 -73 -44q-36 0 -80 23q-40 21 -70 21q-31 0 -39 -44h-59q6 47 33.5 86.5t70.5 39.5q23 0 80 -26q48 -22 62 -22q41 0 46 48z" />
    <glyph glyph-name="Adieresis" unicode="&#xc4;" horiz-adv-x="611" 
d="M157 0h-149l200 722h199l196 -722h-159l-40 160h-206zM372 271l-73 312h-2l-69 -312h144zM339 915h111v-108h-111v108zM162 915h111v-108h-111v108z" />
    <glyph glyph-name="Aring" unicode="&#xc5;" horiz-adv-x="611" 
d="M157 0h-149l200 722h199l196 -722h-159l-40 160h-206zM372 271l-73 312h-2l-69 -312h144zM410 865q0 -43 -30.5 -73.5t-73.5 -30.5t-73.5 30.5t-30.5 73.5q0 42 30.5 73t73.5 31t73.5 -31t30.5 -73zM247 865q0 -25 17 -42t42 -17q24 0 41.5 17t17.5 42q0 24 -17.5 41.5
t-41.5 17.5q-25 0 -42 -17.5t-17 -41.5z" />
    <glyph glyph-name="AE" unicode="&#xc6;" horiz-adv-x="833" 
d="M156 0h-148l238 722h537v-111h-289l33 -178h242v-111h-223l40 -211h216v-111h-346l-27 160h-225zM240 271h169l-62 356h-2z" />
    <glyph glyph-name="Ccedilla" unicode="&#xc7;" horiz-adv-x="556" 
d="M515 494h-148q0 72 -14 102t-48 30q-60 0 -78 -57.5t-18 -207.5t18 -207.5t78 -57.5q23 0 37.5 12.5t20.5 33.5t8 42.5t3 45.5v13h149q0 -140 -53.5 -197.5t-164.5 -57.5h-7l-35 -46l2 -2q12 4 22 4q38 0 65 -19.5t27 -55.5q0 -47 -36 -71t-85 -24q-44 0 -103 26l19 40
q42 -16 65 -16q61 0 61 41q0 27 -33 33.5t-53 -5.5l-22 19l60 79q-32 4 -58.5 14t-45.5 22t-34 33t-24.5 38t-16 46t-10 48.5t-5.5 55t-2 55v58.5q0 156 18 220q33 122 155 146q34 7 76 7q113 0 164 -60.5t46 -179.5z" />
    <glyph glyph-name="Egrave" unicode="&#xc8;" 
d="M465 0h-402v722h394v-111h-243v-178h224v-111h-224v-211h251v-111zM111 939h135l90 -143h-65z" />
    <glyph glyph-name="Eacute" unicode="&#xc9;" 
d="M465 0h-402v722h394v-111h-243v-178h224v-111h-224v-211h251v-111zM254 939h135l-160 -143h-65z" />
    <glyph glyph-name="Ecircumflex" unicode="&#xca;" 
d="M465 0h-402v722h394v-111h-243v-178h224v-111h-224v-211h251v-111zM319 796l-70 89l-71 -89h-91l106 143h111l108 -143h-93z" />
    <glyph glyph-name="Edieresis" unicode="&#xcb;" 
d="M465 0h-402v722h394v-111h-243v-178h224v-111h-224v-211h251v-111zM283 915h111v-108h-111v108zM106 915h111v-108h-111v108z" />
    <glyph glyph-name="Igrave" unicode="&#xcc;" horiz-adv-x="278" 
d="M214 0h-151v722h151v-722zM0 939h135l90 -143h-65z" />
    <glyph glyph-name="Iacute" unicode="&#xcd;" horiz-adv-x="278" 
d="M214 0h-151v722h151v-722zM143 939h135l-160 -143h-65z" />
    <glyph glyph-name="Icircumflex" unicode="&#xce;" horiz-adv-x="278" 
d="M214 0h-151v722h151v-722zM208 796l-70 89l-71 -89h-91l106 143h111l108 -143h-93z" />
    <glyph glyph-name="Idieresis" unicode="&#xcf;" horiz-adv-x="278" 
d="M214 0h-151v722h151v-722zM172 915h111v-108h-111v108zM-5 915h111v-108h-111v108z" />
    <glyph glyph-name="Eth" unicode="&#xd0;" horiz-adv-x="611" 
d="M66 0v354h-59v79h59v289h252q73 0 120 -23t72 -72.5t34 -110t9 -151.5q0 -119 -9 -167q-36 -198 -232 -198h-246zM217 354v-243h73q67 0 88.5 54t21.5 196q0 38 -0.5 56.5t-2 50.5t-5.5 48t-11.5 37.5t-18.5 32t-28 18t-39 7.5h-78v-178h97v-79h-97z" />
    <glyph glyph-name="Ntilde" unicode="&#xd1;" horiz-adv-x="667" 
d="M205 0h-141v722h204l192 -500h2v500h141v-722h-199l-197 528h-2v-528zM448 924h61q-9 -52 -32 -82q-32 -44 -73 -44q-36 0 -80 23q-40 21 -70 21q-31 0 -39 -44h-59q6 47 33.5 86.5t70.5 39.5q23 0 80 -26q48 -22 62 -22q41 0 46 48z" />
    <glyph glyph-name="Ograve" unicode="&#xd2;" horiz-adv-x="611" 
d="M305 96q60 0 78 57.5t18 207.5t-18 207.5t-78 57.5t-78 -57.5t-18 -207.5t18 -207.5t78 -57.5zM305 -12q-173 0 -222 126q-27 68 -27 224v23q0 156 18 220q33 122 155 146q34 7 76 7q172 0 221 -123q28 -68 28 -224v-26q0 -156 -18 -220q-35 -124 -161 -147
q-32 -6 -70 -6zM167 939h135l90 -143h-65z" />
    <glyph glyph-name="Oacute" unicode="&#xd3;" horiz-adv-x="611" 
d="M305 96q60 0 78 57.5t18 207.5t-18 207.5t-78 57.5t-78 -57.5t-18 -207.5t18 -207.5t78 -57.5zM305 -12q-173 0 -222 126q-27 68 -27 224v23q0 156 18 220q33 122 155 146q34 7 76 7q172 0 221 -123q28 -68 28 -224v-26q0 -156 -18 -220q-35 -124 -161 -147
q-32 -6 -70 -6zM310 939h135l-160 -143h-65z" />
    <glyph glyph-name="Ocircumflex" unicode="&#xd4;" horiz-adv-x="611" 
d="M305 96q60 0 78 57.5t18 207.5t-18 207.5t-78 57.5t-78 -57.5t-18 -207.5t18 -207.5t78 -57.5zM305 -12q-173 0 -222 126q-27 68 -27 224v23q0 156 18 220q33 122 155 146q34 7 76 7q172 0 221 -123q28 -68 28 -224v-26q0 -156 -18 -220q-35 -124 -161 -147
q-32 -6 -70 -6zM375 796l-70 89l-71 -89h-91l106 143h111l108 -143h-93z" />
    <glyph glyph-name="Otilde" unicode="&#xd5;" horiz-adv-x="611" 
d="M305 96q60 0 78 57.5t18 207.5t-18 207.5t-78 57.5t-78 -57.5t-18 -207.5t18 -207.5t78 -57.5zM305 -12q-173 0 -222 126q-27 68 -27 224v23q0 156 18 220q33 122 155 146q34 7 76 7q172 0 221 -123q28 -68 28 -224v-26q0 -156 -18 -220q-35 -124 -161 -147
q-32 -6 -70 -6zM420 924h61q-9 -52 -32 -82q-32 -44 -73 -44q-36 0 -80 23q-40 21 -70 21q-31 0 -39 -44h-59q6 47 33.5 86.5t70.5 39.5q23 0 80 -26q48 -22 62 -22q41 0 46 48z" />
    <glyph glyph-name="Odieresis" unicode="&#xd6;" horiz-adv-x="611" 
d="M305 96q60 0 78 57.5t18 207.5t-18 207.5t-78 57.5t-78 -57.5t-18 -207.5t18 -207.5t78 -57.5zM305 -12q-173 0 -222 126q-27 68 -27 224v23q0 156 18 220q33 122 155 146q34 7 76 7q172 0 221 -123q28 -68 28 -224v-26q0 -156 -18 -220q-35 -124 -161 -147
q-32 -6 -70 -6zM339 915h111v-108h-111v108zM162 915h111v-108h-111v108z" />
    <glyph glyph-name="multiply" unicode="&#xd7;" 
d="M172 253l-147 147l78 78l147 -147l147 147l78 -78l-147 -147l147 -147l-78 -78l-147 147l-147 -147l-78 78z" />
    <glyph glyph-name="Oslash" unicode="&#xd8;" horiz-adv-x="611" 
d="M398 440l-177 -265q9 -41 29 -60t55 -19q60 0 78 57.5t18 207.5q0 58 -1 79h-2zM212 275l177 265q-8 45 -28 65.5t-56 20.5q-60 0 -78 -57.5t-18 -207.5q0 -63 1 -86h2zM132 42l-52 -77l-52 37l63 94q-16 33 -24.5 81.5t-9.5 83.5t-1 100q0 156 18 220q33 122 155 146
q34 7 76 7q120 0 177 -57l53 78l52 -36l-66 -98q15 -32 23 -79.5t9 -82t1 -98.5q0 -156 -18 -220q-35 -124 -161 -147q-32 -6 -70 -6q-114 0 -173 54z" />
    <glyph glyph-name="Ugrave" unicode="&#xd9;" horiz-adv-x="611" 
d="M400 722h151v-512q0 -93 -59 -157.5t-186 -64.5q-122 0 -184 58.5t-62 163.5v512h151v-502q0 -124 93 -124q96 0 96 124v502zM167 939h135l90 -143h-65z" />
    <glyph glyph-name="Uacute" unicode="&#xda;" horiz-adv-x="611" 
d="M400 722h151v-512q0 -93 -59 -157.5t-186 -64.5q-122 0 -184 58.5t-62 163.5v512h151v-502q0 -124 93 -124q96 0 96 124v502zM310 939h135l-160 -143h-65z" />
    <glyph glyph-name="Ucircumflex" unicode="&#xdb;" horiz-adv-x="611" 
d="M400 722h151v-512q0 -93 -59 -157.5t-186 -64.5q-122 0 -184 58.5t-62 163.5v512h151v-502q0 -124 93 -124q96 0 96 124v502zM375 796l-70 89l-71 -89h-91l106 143h111l108 -143h-93z" />
    <glyph glyph-name="Udieresis" unicode="&#xdc;" horiz-adv-x="611" 
d="M400 722h151v-512q0 -93 -59 -157.5t-186 -64.5q-122 0 -184 58.5t-62 163.5v512h151v-502q0 -124 93 -124q96 0 96 124v502zM339 915h111v-108h-111v108zM162 915h111v-108h-111v108z" />
    <glyph glyph-name="Yacute" unicode="&#xdd;" horiz-adv-x="556" 
d="M196 0v250l-189 472h165l108 -305l115 305h154l-202 -472v-250h-151zM282 939h135l-160 -143h-65z" />
    <glyph glyph-name="Thorn" unicode="&#xde;" horiz-adv-x="556" 
d="M215 482v-206h84q33 0 54.5 29.5t21.5 67.5q0 109 -84 109h-76zM64 0v722h151v-129h121q192 0 192 -216q0 -29 -3.5 -54t-16.5 -55.5t-33.5 -52t-58.5 -36t-89 -14.5h-112v-165h-151z" />
    <glyph glyph-name="germandbls" unicode="&#xdf;" horiz-adv-x="556" 
d="M56 0v549q0 185 220 185q203 0 203 -151q0 -57 -44 -103l-16 -15.5t-17 -17.5t-9 -17t-5 -24q0 -10 3 -19.5t12 -21l14 -17.5t19.5 -21l19.5 -20q68 -74 68 -148q0 -79 -54 -124t-147 -45q-29 0 -66 10v103q17 -5 44 -5q39 0 62 11.5t23 45.5q0 18 -12 40.5t-21.5 34.5
t-34.5 40q-23 27 -34 41.5t-22.5 38t-11.5 44.5q0 17 8 33t14.5 23t23.5 23q45 47 45 98q0 74 -65 74q-44 0 -63 -28.5t-19 -51.5v-565h-138z" />
    <glyph glyph-name="agrave" unicode="&#xe0;" 
d="M301 244q-4 0 -20 -0.5t-20 -1t-17 -1.5t-16.5 -3t-13 -5t-13 -7.5t-9 -11t-7.5 -14.5t-4 -19t-2 -24q0 -80 52 -80q17 0 30 6t20.5 18.5t12 23.5t6 31t2 30.5t0 31.5t-0.5 26zM439 346v-252q0 -22 7 -94h-131l-6 67h-2q-44 -77 -132 -77q-69 0 -101.5 44.5t-32.5 116.5
q0 48 15.5 82t37.5 51.5t60 26.5t68.5 11t78.5 1v39q0 38 -11 56t-46 18q-33 0 -43 -20t-10 -57h-138q0 87 52 123q44 33 132 33q65 0 107 -12.5t61.5 -38t26.5 -52.5t7 -66zM111 722h135l90 -143h-65z" />
    <glyph glyph-name="aacute" unicode="&#xe1;" 
d="M301 244q-4 0 -20 -0.5t-20 -1t-17 -1.5t-16.5 -3t-13 -5t-13 -7.5t-9 -11t-7.5 -14.5t-4 -19t-2 -24q0 -80 52 -80q17 0 30 6t20.5 18.5t12 23.5t6 31t2 30.5t0 31.5t-0.5 26zM439 346v-252q0 -22 7 -94h-131l-6 67h-2q-44 -77 -132 -77q-69 0 -101.5 44.5t-32.5 116.5
q0 48 15.5 82t37.5 51.5t60 26.5t68.5 11t78.5 1v39q0 38 -11 56t-46 18q-33 0 -43 -20t-10 -57h-138q0 87 52 123q44 33 132 33q65 0 107 -12.5t61.5 -38t26.5 -52.5t7 -66zM254 722h135l-160 -143h-65z" />
    <glyph glyph-name="acircumflex" unicode="&#xe2;" 
d="M301 244q-4 0 -20 -0.5t-20 -1t-17 -1.5t-16.5 -3t-13 -5t-13 -7.5t-9 -11t-7.5 -14.5t-4 -19t-2 -24q0 -80 52 -80q17 0 30 6t20.5 18.5t12 23.5t6 31t2 30.5t0 31.5t-0.5 26zM439 346v-252q0 -22 7 -94h-131l-6 67h-2q-44 -77 -132 -77q-69 0 -101.5 44.5t-32.5 116.5
q0 48 15.5 82t37.5 51.5t60 26.5t68.5 11t78.5 1v39q0 38 -11 56t-46 18q-33 0 -43 -20t-10 -57h-138q0 87 52 123q44 33 132 33q65 0 107 -12.5t61.5 -38t26.5 -52.5t7 -66zM319 579l-70 89l-71 -89h-91l106 143h111l108 -143h-93z" />
    <glyph glyph-name="atilde" unicode="&#xe3;" 
d="M301 244q-4 0 -20 -0.5t-20 -1t-17 -1.5t-16.5 -3t-13 -5t-13 -7.5t-9 -11t-7.5 -14.5t-4 -19t-2 -24q0 -80 52 -80q17 0 30 6t20.5 18.5t12 23.5t6 31t2 30.5t0 31.5t-0.5 26zM439 346v-252q0 -22 7 -94h-131l-6 67h-2q-44 -77 -132 -77q-69 0 -101.5 44.5t-32.5 116.5
q0 48 15.5 82t37.5 51.5t60 26.5t68.5 11t78.5 1v39q0 38 -11 56t-46 18q-33 0 -43 -20t-10 -57h-138q0 87 52 123q44 33 132 33q65 0 107 -12.5t61.5 -38t26.5 -52.5t7 -66zM364 707h61q-9 -52 -32 -82q-32 -44 -73 -44q-36 0 -80 23q-40 21 -70 21q-31 0 -39 -44h-59
q6 47 33.5 86.5t70.5 39.5q23 0 80 -26q48 -22 62 -22q41 0 46 48z" />
    <glyph glyph-name="adieresis" unicode="&#xe4;" 
d="M301 244q-4 0 -20 -0.5t-20 -1t-17 -1.5t-16.5 -3t-13 -5t-13 -7.5t-9 -11t-7.5 -14.5t-4 -19t-2 -24q0 -80 52 -80q17 0 30 6t20.5 18.5t12 23.5t6 31t2 30.5t0 31.5t-0.5 26zM439 346v-252q0 -22 7 -94h-131l-6 67h-2q-44 -77 -132 -77q-69 0 -101.5 44.5t-32.5 116.5
q0 48 15.5 82t37.5 51.5t60 26.5t68.5 11t78.5 1v39q0 38 -11 56t-46 18q-33 0 -43 -20t-10 -57h-138q0 87 52 123q44 33 132 33q65 0 107 -12.5t61.5 -38t26.5 -52.5t7 -66zM283 698h111v-108h-111v108zM106 698h111v-108h-111v108z" />
    <glyph glyph-name="aring" unicode="&#xe5;" 
d="M301 244q-4 0 -20 -0.5t-20 -1t-17 -1.5t-16.5 -3t-13 -5t-13 -7.5t-9 -11t-7.5 -14.5t-4 -19t-2 -24q0 -80 52 -80q17 0 30 6t20.5 18.5t12 23.5t6 31t2 30.5t0 31.5t-0.5 26zM439 346v-252q0 -22 7 -94h-131l-6 67h-2q-44 -77 -132 -77q-69 0 -101.5 44.5t-32.5 116.5
q0 48 15.5 82t37.5 51.5t60 26.5t68.5 11t78.5 1v39q0 38 -11 56t-46 18q-33 0 -43 -20t-10 -57h-138q0 87 52 123q44 33 132 33q65 0 107 -12.5t61.5 -38t26.5 -52.5t7 -66zM354 648q0 -43 -30.5 -73.5t-73.5 -30.5t-73.5 30.5t-30.5 73.5q0 42 30.5 73t73.5 31t73.5 -31
t30.5 -73zM191 648q0 -25 17 -42t42 -17q24 0 41.5 17t17.5 42q0 24 -17.5 41.5t-41.5 17.5q-25 0 -42 -17.5t-17 -41.5z" />
    <glyph glyph-name="ae" unicode="&#xe6;" horiz-adv-x="778" 
d="M243 80q19 0 34 4.5t23.5 16t13.5 20.5t7 27.5t2.5 28t0 31.5t-0.5 27q-35 3 -62 1.5t-45 -9.5t-27.5 -28t-9.5 -54q0 -65 64 -65zM461 314h134v25t-1.5 25.5t-6 28t-11 21t-18.5 17t-28 5.5q-17 0 -29.5 -6t-19.5 -18t-11.5 -22.5t-6 -27.5t-2 -25t-0.5 -23zM736 235
h-275q0 -32 1.5 -53t7.5 -47.5t21 -40.5t39 -14q60 0 60 90h143q-4 -85 -55 -132.5t-148 -47.5q-124 0 -153 88q-48 -88 -169 -88q-78 0 -122.5 40.5t-44.5 118.5q0 104 66 137t216 28q0 6 0.5 24.5t0 25.5t-2 21.5t-6 21t-12 15t-19.5 11.5t-29 3q-63 0 -63 -78h-138
q1 89 52.5 123t144.5 34q114 0 145 -71q43 71 134 71q55 0 94.5 -14.5t61.5 -38t34 -61.5t15 -76t1 -90z" />
    <glyph glyph-name="ccedilla" unicode="&#xe7;" 
d="M454 325h-141q0 55 -14.5 77.5t-48.5 22.5q-42 0 -53.5 -35t-11.5 -123q0 -115 13 -151t52 -36q65 0 65 106h141q0 -186 -183 -195l-38 -49l2 -2q12 4 22 4q38 0 65 -19.5t27 -55.5q0 -47 -36 -71t-85 -24q-44 0 -103 26l19 40q42 -16 65 -16q61 0 61 41q0 27 -33 33.5
t-53 -5.5l-22 19l60 80q-46 3 -79 18t-52.5 37t-30.5 57t-14.5 70t-3.5 85q0 60 6.5 99.5t26.5 78.5t63 58.5t110 19.5q204 0 204 -190z" />
    <glyph glyph-name="egrave" unicode="&#xe8;" 
d="M186 309h129v32.5t-3.5 30t-9.5 30t-19.5 18t-32.5 8.5q-23 0 -37 -11t-19.5 -33.5t-6.5 -36.5t-1 -38zM456 230h-270q0 -30 1.5 -50t7 -46.5t19.5 -40t36 -13.5q60 0 60 90h143q-3 -85 -54 -131q-52 -49 -149 -49q-53 0 -91 13.5t-60 35t-34.5 58t-16.5 73t-4 89.5
q0 60 6.5 99.5t26.5 78.5t63 58.5t110 19.5q55 0 94.5 -14.5t61.5 -38.5t34 -62.5t15 -77t1 -92.5zM111 722h135l90 -143h-65z" />
    <glyph glyph-name="eacute" unicode="&#xe9;" 
d="M186 309h129v32.5t-3.5 30t-9.5 30t-19.5 18t-32.5 8.5q-23 0 -37 -11t-19.5 -33.5t-6.5 -36.5t-1 -38zM456 230h-270q0 -30 1.5 -50t7 -46.5t19.5 -40t36 -13.5q60 0 60 90h143q-3 -85 -54 -131q-52 -49 -149 -49q-53 0 -91 13.5t-60 35t-34.5 58t-16.5 73t-4 89.5
q0 60 6.5 99.5t26.5 78.5t63 58.5t110 19.5q55 0 94.5 -14.5t61.5 -38.5t34 -62.5t15 -77t1 -92.5zM254 722h135l-160 -143h-65z" />
    <glyph glyph-name="ecircumflex" unicode="&#xea;" 
d="M186 309h129v32.5t-3.5 30t-9.5 30t-19.5 18t-32.5 8.5q-23 0 -37 -11t-19.5 -33.5t-6.5 -36.5t-1 -38zM456 230h-270q0 -30 1.5 -50t7 -46.5t19.5 -40t36 -13.5q60 0 60 90h143q-3 -85 -54 -131q-52 -49 -149 -49q-53 0 -91 13.5t-60 35t-34.5 58t-16.5 73t-4 89.5
q0 60 6.5 99.5t26.5 78.5t63 58.5t110 19.5q55 0 94.5 -14.5t61.5 -38.5t34 -62.5t15 -77t1 -92.5zM319 579l-70 89l-71 -89h-91l106 143h111l108 -143h-93z" />
    <glyph glyph-name="edieresis" unicode="&#xeb;" 
d="M186 309h129v32.5t-3.5 30t-9.5 30t-19.5 18t-32.5 8.5q-23 0 -37 -11t-19.5 -33.5t-6.5 -36.5t-1 -38zM456 230h-270q0 -30 1.5 -50t7 -46.5t19.5 -40t36 -13.5q60 0 60 90h143q-3 -85 -54 -131q-52 -49 -149 -49q-53 0 -91 13.5t-60 35t-34.5 58t-16.5 73t-4 89.5
q0 60 6.5 99.5t26.5 78.5t63 58.5t110 19.5q55 0 94.5 -14.5t61.5 -38.5t34 -62.5t15 -77t1 -92.5zM283 698h111v-108h-111v108zM106 698h111v-108h-111v108z" />
    <glyph glyph-name="igrave" unicode="&#xec;" horiz-adv-x="278" 
d="M209 505v-505h-141v505h141zM0 722h135l90 -143h-65z" />
    <glyph glyph-name="iacute" unicode="&#xed;" horiz-adv-x="278" 
d="M209 505v-505h-141v505h141zM143 722h135l-160 -143h-65z" />
    <glyph glyph-name="icircumflex" unicode="&#xee;" horiz-adv-x="278" 
d="M209 505v-505h-141v505h141zM208 579l-70 89l-71 -89h-91l106 143h111l108 -143h-93z" />
    <glyph glyph-name="idieresis" unicode="&#xef;" horiz-adv-x="278" 
d="M209 505v-505h-141v505h141zM172 698h111v-108h-111v108zM-5 698h111v-108h-111v108z" />
    <glyph glyph-name="eth" unicode="&#xf0;" 
d="M94 667l76 84q24 -7 57.5 -24.5t48.5 -28.5l82 53l37 -37l-72 -47q54 -62 79 -105t39.5 -116t14.5 -192q0 -65 -7 -107.5t-27.5 -81t-63 -57t-108.5 -18.5t-108.5 18.5t-63 57t-27.5 81t-7 107.5q0 55 7.5 97t26 78.5t54.5 56t87 19.5q33 0 54.5 -10t47.5 -36l2 2
q-36 91 -107 137l-86 -55l-40 35l77 50q-33 23 -73 35v4zM185 262q0 -111 13 -146.5t52 -35.5t52 35.5t13 146.5q0 85 -11.5 119t-53.5 34t-53.5 -34t-11.5 -119z" />
    <glyph glyph-name="ntilde" unicode="&#xf1;" 
d="M197 505v-51h2q20 33 50 47q28 14 69 14q53 0 89.5 -29.5t36.5 -80.5v-405h-141v348q0 39 -11 59.5t-42 20.5t-42 -20.5t-11 -59.5v-348h-141v505h141zM364 707h61q-9 -52 -32 -82q-32 -44 -73 -44q-36 0 -80 23q-40 21 -70 21q-31 0 -39 -44h-59q6 47 33.5 86.5
t70.5 39.5q23 0 80 -26q48 -22 62 -22q41 0 46 48z" />
    <glyph glyph-name="ograve" unicode="&#xf2;" 
d="M250 80q39 0 52 36t13 151q0 88 -11.5 123t-53.5 35t-53.5 -35t-11.5 -123q0 -115 13 -151t52 -36zM250 -10q-53 0 -91 13.5t-60 35t-34.5 58t-16.5 73t-4 89.5q0 60 6.5 99.5t26.5 78.5t63 58.5t110 19.5t110 -19.5t63 -58.5t26.5 -78.5t6.5 -99.5q0 -53 -4 -89.5
t-16.5 -73t-34.5 -58t-60 -35t-91 -13.5zM111 722h135l90 -143h-65z" />
    <glyph glyph-name="oacute" unicode="&#xf3;" 
d="M250 80q39 0 52 36t13 151q0 88 -11.5 123t-53.5 35t-53.5 -35t-11.5 -123q0 -115 13 -151t52 -36zM250 -10q-53 0 -91 13.5t-60 35t-34.5 58t-16.5 73t-4 89.5q0 60 6.5 99.5t26.5 78.5t63 58.5t110 19.5t110 -19.5t63 -58.5t26.5 -78.5t6.5 -99.5q0 -53 -4 -89.5
t-16.5 -73t-34.5 -58t-60 -35t-91 -13.5zM254 722h135l-160 -143h-65z" />
    <glyph glyph-name="ocircumflex" unicode="&#xf4;" 
d="M250 80q39 0 52 36t13 151q0 88 -11.5 123t-53.5 35t-53.5 -35t-11.5 -123q0 -115 13 -151t52 -36zM250 -10q-53 0 -91 13.5t-60 35t-34.5 58t-16.5 73t-4 89.5q0 60 6.5 99.5t26.5 78.5t63 58.5t110 19.5t110 -19.5t63 -58.5t26.5 -78.5t6.5 -99.5q0 -53 -4 -89.5
t-16.5 -73t-34.5 -58t-60 -35t-91 -13.5zM319 579l-70 89l-71 -89h-91l106 143h111l108 -143h-93z" />
    <glyph glyph-name="otilde" unicode="&#xf5;" 
d="M250 80q39 0 52 36t13 151q0 88 -11.5 123t-53.5 35t-53.5 -35t-11.5 -123q0 -115 13 -151t52 -36zM250 -10q-53 0 -91 13.5t-60 35t-34.5 58t-16.5 73t-4 89.5q0 60 6.5 99.5t26.5 78.5t63 58.5t110 19.5t110 -19.5t63 -58.5t26.5 -78.5t6.5 -99.5q0 -53 -4 -89.5
t-16.5 -73t-34.5 -58t-60 -35t-91 -13.5zM364 707h61q-9 -52 -32 -82q-32 -44 -73 -44q-36 0 -80 23q-40 21 -70 21q-31 0 -39 -44h-59q6 47 33.5 86.5t70.5 39.5q23 0 80 -26q48 -22 62 -22q41 0 46 48z" />
    <glyph glyph-name="odieresis" unicode="&#xf6;" 
d="M250 80q39 0 52 36t13 151q0 88 -11.5 123t-53.5 35t-53.5 -35t-11.5 -123q0 -115 13 -151t52 -36zM250 -10q-53 0 -91 13.5t-60 35t-34.5 58t-16.5 73t-4 89.5q0 60 6.5 99.5t26.5 78.5t63 58.5t110 19.5t110 -19.5t63 -58.5t26.5 -78.5t6.5 -99.5q0 -53 -4 -89.5
t-16.5 -73t-34.5 -58t-60 -35t-91 -13.5zM283 698h111v-108h-111v108zM106 698h111v-108h-111v108z" />
    <glyph glyph-name="divide" unicode="&#xf7;" 
d="M25 197v111h450v-111h-450zM314 385h-128v120h128v-120zM314 0h-128v120h128v-120z" />
    <glyph glyph-name="oslash" unicode="&#xf8;" 
d="M186 208l123 155q-5 32 -18.5 47t-40.5 15q-42 0 -53.5 -35t-11.5 -123q0 -43 1 -59zM314 298l-123 -155q6 -37 19.5 -50t39.5 -13q39 0 52 36t13 151q0 23 -1 31zM104 34l-62 -78l-35 27l69 87q-32 57 -32 189q0 60 6.5 99.5t26.5 78.5t63 58.5t110 19.5q96 0 146 -44
l63 78l34 -27l-69 -86q32 -56 32 -177q0 -53 -4 -89.5t-16.5 -73t-34.5 -58t-60 -35t-91 -13.5q-99 0 -146 44z" />
    <glyph glyph-name="ugrave" unicode="&#xf9;" 
d="M303 0v51h-2q-22 -34 -50 -47q-28 -14 -69 -14q-53 0 -89.5 29.5t-36.5 80.5v405h141v-350q0 -38 11 -58t42 -20t42 20t11 58v350h141v-405q0 -45 5 -100h-146zM111 722h135l90 -143h-65z" />
    <glyph glyph-name="uacute" unicode="&#xfa;" 
d="M303 0v51h-2q-22 -34 -50 -47q-28 -14 -69 -14q-53 0 -89.5 29.5t-36.5 80.5v405h141v-350q0 -38 11 -58t42 -20t42 20t11 58v350h141v-405q0 -45 5 -100h-146zM254 722h135l-160 -143h-65z" />
    <glyph glyph-name="ucircumflex" unicode="&#xfb;" 
d="M303 0v51h-2q-22 -34 -50 -47q-28 -14 -69 -14q-53 0 -89.5 29.5t-36.5 80.5v405h141v-350q0 -38 11 -58t42 -20t42 20t11 58v350h141v-405q0 -45 5 -100h-146zM319 579l-70 89l-71 -89h-91l106 143h111l108 -143h-93z" />
    <glyph glyph-name="udieresis" unicode="&#xfc;" 
d="M303 0v51h-2q-22 -34 -50 -47q-28 -14 -69 -14q-53 0 -89.5 29.5t-36.5 80.5v405h141v-350q0 -38 11 -58t42 -20t42 20t11 58v350h141v-405q0 -45 5 -100h-146zM283 698h111v-108h-111v108zM106 698h111v-108h-111v108z" />
    <glyph glyph-name="yacute" unicode="&#xfd;" horiz-adv-x="444" 
d="M92 -191l54 187l-137 509h140l72 -355h2l76 355h136l-195 -696h-148zM226 722h135l-160 -143h-65z" />
    <glyph glyph-name="thorn" unicode="&#xfe;" 
d="M254 77q37 0 48.5 39.5t11.5 140.5q0 109 -12 138q-13 33 -48 33q-14 0 -24 -4.5t-16 -17t-9.5 -23.5t-5 -35t-2 -39t-0.5 -47v-5q0 -101 11.5 -140.5t45.5 -39.5zM56 -217v939h141v-273h2q14 36 43 51q26 15 69 15q29 0 52 -9.5t38 -22.5t25 -37t15 -42t7.5 -49.5t3 -48
t0.5 -47.5v-10v-47.5t-2.5 -47.5t-7 -51t-14.5 -42t-24.5 -38.5t-37.5 -22.5t-52 -10q-76 0 -115 58h-2v-265h-141z" />
    <glyph glyph-name="ydieresis" unicode="&#xff;" horiz-adv-x="444" 
d="M92 -191l54 187l-137 509h140l72 -355h2l76 355h136l-195 -696h-148zM255 698h111v-108h-111v108zM78 698h111v-108h-111v108z" />
    <glyph glyph-name="dotlessi" unicode="&#x131;" horiz-adv-x="278" 
d="M209 505v-505h-141v505h141z" />
    <glyph glyph-name="Lslash" unicode="&#x141;" horiz-adv-x="444" 
d="M64 0v282l-54 -31l-40 69l94 55v347h151v-260l93 53l40 -69l-133 -77v-249h226v-120h-377z" />
    <glyph glyph-name="lslash" unicode="&#x142;" horiz-adv-x="278" 
d="M68 0v300l-71 -41l-40 69l111 64v330h141v-249l72 42l40 -70l-112 -64v-381h-141z" />
    <glyph glyph-name="OE" unicode="&#x152;" horiz-adv-x="833" 
d="M809 0h-523q-165 0 -209 136q-21 66 -21 221v28q0 95 9 153t36 102.5t77.5 63t132.5 18.5h490v-111h-243v-178h224v-111h-224v-211h251v-111zM417 111v500h-87q-52 0 -77.5 -18t-37 -67.5t-11.5 -149.5q0 -40 0.5 -60.5t1.5 -52t4 -47t8 -36.5t12.5 -30.5t19 -20
t26.5 -14.5t35 -4h106z" />
    <glyph glyph-name="oe" unicode="&#x153;" horiz-adv-x="778" 
d="M250 80q51 0 66.5 35.5t15.5 151.5q0 46 -2 70t-10 47t-25 32t-45 9q-42 0 -53.5 -35t-11.5 -123q0 -115 13 -151t52 -36zM473 309h129v32.5t-3.5 30t-9.5 30t-19.5 18t-32.5 8.5q-23 0 -37 -11t-19.5 -33.5t-6.5 -36.5t-1 -38zM743 230h-270q0 -30 1.5 -50t7 -46.5
t19.5 -40t36 -13.5q60 0 60 90h143q-4 -85 -55 -132.5t-148 -47.5q-53 0 -90 18t-60 70q-20 -43 -59 -65.5t-78 -22.5q-53 0 -91 13.5t-60 35t-34.5 58t-16.5 73t-4 89.5q0 60 6.5 99.5t26.5 78.5t63 58.5t110 19.5q117 0 156 -73q35 73 131 73q55 0 94.5 -14.5t61.5 -38.5
t34 -62.5t15 -77t1 -92.5z" />
    <glyph glyph-name="Scaron" unicode="&#x160;" horiz-adv-x="556" 
d="M511 197q0 -67 -22 -111t-62.5 -64t-78.5 -27t-89 -7q-67 0 -113 18.5t-67.5 53t-29 73.5t-4.5 90h151q0 -25 1 -40t5.5 -34t13.5 -29t25.5 -17t40.5 -7q37 0 56.5 22t19.5 60q0 35 -31.5 65t-76 54.5t-89 53t-76 74.5t-31.5 106q0 203 238 203q112 0 164.5 -52.5
t45.5 -164.5h-147q0 50 -14.5 79.5t-55.5 29.5q-37 0 -57.5 -20t-20.5 -57t31.5 -66.5t76 -52.5t89 -50t76 -73.5t31.5 -109.5zM277 850l70 89h93l-108 -143h-111l-106 143h91z" />
    <glyph glyph-name="scaron" unicode="&#x161;" horiz-adv-x="444" 
d="M29 162h138q-2 -41 7 -61q12 -24 51 -24q22 0 37 14t15 38q0 29 -25.5 50.5t-62 36t-73 32t-62 49t-25.5 76.5q0 51 32 84.5t74.5 45.5t92.5 12q79 0 130 -39t45 -116h-138q0 52 -14 65q-11 11 -36 11q-48 0 -48 -54q0 -22 25.5 -39.5t62 -33t73 -34.5t62 -52.5
t25.5 -78.5q0 -67 -51.5 -110.5t-137.5 -43.5q-102 0 -152.5 36.5t-44.5 135.5zM221 633l70 89h93l-108 -143h-111l-106 143h91z" />
    <glyph glyph-name="Ydieresis" unicode="&#x178;" horiz-adv-x="556" 
d="M196 0v250l-189 472h165l108 -305l115 305h154l-202 -472v-250h-151zM311 915h111v-108h-111v108zM134 915h111v-108h-111v108z" />
    <glyph glyph-name="Zcaron" unicode="&#x17d;" 
d="M36 611v111h435v-131l-304 -480h311v-111h-456v132l303 479h-289zM249 850l70 89h93l-108 -143h-111l-106 143h91z" />
    <glyph glyph-name="zcaron" unicode="&#x17e;" horiz-adv-x="389" 
d="M363 505v-100l-201 -315h204v-90h-343v100l198 315h-191v90h333zM194 633l70 89h93l-108 -143h-111l-106 143h91z" />
    <glyph glyph-name="florin" unicode="&#x192;" horiz-adv-x="444" 
d="M149 366h-66l15 87h67q17 111 25 137q26 86 103 108q32 9 75 9q26 0 59 -3l-19 -106q-14 7 -28 7q-30 0 -44 -26.5t-19 -71.5t-8 -54h81l-14 -87h-80l-56 -370q-25 -163 -180 -163q-46 0 -61 4l17 101q8 -3 16 -3q31 0 44.5 20.5t18.5 56.5z" />
    <glyph glyph-name="circumflex" unicode="&#x2c6;" horiz-adv-x="278" 
d="M208 579l-70 89l-71 -89h-91l106 143h111l108 -143h-93z" />
    <glyph glyph-name="caron" unicode="&#x2c7;" horiz-adv-x="278" 
d="M138 633l70 89h93l-108 -143h-111l-106 143h91z" />
    <glyph glyph-name="uni02C9" unicode="&#x2c9;" horiz-adv-x="278" 
d="M-6 605v72h289v-72h-289z" />
    <glyph glyph-name="breve" unicode="&#x2d8;" horiz-adv-x="278" 
d="M-22 722h57q14 -74 107 -74q84 0 101 74h57q-7 -69 -51.5 -107.5t-114.5 -38.5q-69 0 -110.5 38t-45.5 108z" />
    <glyph glyph-name="dotaccent" unicode="&#x2d9;" horiz-adv-x="278" 
d="M83 698h111v-108h-111v108z" />
    <glyph glyph-name="ring" unicode="&#x2da;" horiz-adv-x="278" 
d="M243 648q0 -43 -30.5 -73.5t-73.5 -30.5t-73.5 30.5t-30.5 73.5q0 42 30.5 73t73.5 31t73.5 -31t30.5 -73zM80 648q0 -25 17 -42t42 -17q24 0 41.5 17t17.5 42q0 24 -17.5 41.5t-41.5 17.5q-25 0 -42 -17.5t-17 -41.5z" />
    <glyph glyph-name="ogonek" unicode="&#x2db;" horiz-adv-x="278" 
d="M102 0l88 2v-4q-32 -13 -56 -34.5t-24 -45.5q0 -36 45 -36q29 0 79 16v-50q-59 -26 -108 -26q-106 0 -106 75q0 37 28 66t54 37z" />
    <glyph glyph-name="tilde" unicode="&#x2dc;" horiz-adv-x="278" 
d="M253 707h61q-9 -52 -32 -82q-32 -44 -73 -44q-36 0 -80 23q-40 21 -70 21q-31 0 -39 -44h-59q6 47 33.5 86.5t70.5 39.5q23 0 80 -26q48 -22 62 -22q41 0 46 48z" />
    <glyph glyph-name="hungarumlaut" unicode="&#x2dd;" horiz-adv-x="445" 
d="M143 722h135l-160 -143h-65zM310 722h135l-160 -143h-65z" />
    <glyph glyph-name="uni03A9" unicode="&#x3a9;" horiz-adv-x="549" 
d="M128 103v3q-91 123 -91 280q0 131 66.5 223t173.5 92q75 0 129.5 -49.5t77.5 -116.5t23 -139q0 -86 -26.5 -163t-64.5 -127v-3h104v-103h-211v74q33 29 55.5 104t22.5 187q0 98 -28.5 162.5t-84.5 64.5q-54 0 -85.5 -64.5t-31.5 -167.5t23 -180t55 -106v-74h-210v103h103
z" />
    <glyph glyph-name="uni03BC" unicode="&#x3bc;" 
d="M303 0v51h-2q-36 -59 -104 -61v-181h-141v696h141v-350q0 -38 11 -58t42 -20t42 20t11 58v350h141v-505h-141z" />
    <glyph glyph-name="pi" unicode="&#x3c0;" horiz-adv-x="498" 
d="M478 410h-54v-276q0 -85 11 -134h-113q-15 31 -15 133v277h-100q-4 -88 -18 -208.5t-35 -201.5h-113q21 90 35 210t15 200q-47 0 -73 -8l-13 86q37 32 139 32h342z" />
    <glyph glyph-name="endash" unicode="&#x2013;" 
d="M500 309v-79h-500v79h500z" />
    <glyph glyph-name="emdash" unicode="&#x2014;" horiz-adv-x="1000" 
d="M0 230v79h1000v-79h-1000z" />
    <glyph glyph-name="quoteleft" unicode="&#x2018;" horiz-adv-x="222" 
d="M195 722l-35 -197h-134l73 197h96z" />
    <glyph glyph-name="quoteright" unicode="&#x2019;" horiz-adv-x="222" 
d="M26 525l35 197h134l-73 -197h-96z" />
    <glyph glyph-name="quotesinglbase" unicode="&#x201a;" horiz-adv-x="222" 
d="M26 -97l35 197h134l-73 -197h-96z" />
    <glyph glyph-name="quotedblleft" unicode="&#x201c;" horiz-adv-x="444" 
d="M395 722l-35 -197h-134l73 197h96zM217 722l-35 -197h-134l73 197h96z" />
    <glyph glyph-name="quotedblright" unicode="&#x201d;" horiz-adv-x="444" 
d="M48 525l35 197h134l-73 -197h-96zM226 525l35 197h134l-73 -197h-96z" />
    <glyph glyph-name="quotedblbase" unicode="&#x201e;" horiz-adv-x="444" 
d="M48 -97l35 197h134l-73 -197h-96zM226 -97l35 197h134l-73 -197h-96z" />
    <glyph glyph-name="dagger" unicode="&#x2020;" horiz-adv-x="444" 
d="M5 568h157v154h120v-154h157v-97h-157v-471h-120v471h-157v97z" />
    <glyph glyph-name="daggerdbl" unicode="&#x2021;" horiz-adv-x="444" 
d="M162 0v148h-157v97h157v232h-157v97h157v148h120v-148h157v-97h-157v-232h157v-97h-157v-148h-120z" />
    <glyph glyph-name="bullet" unicode="&#x2022;" horiz-adv-x="420" 
d="M390 361q0 -75 -52.5 -127.5t-127.5 -52.5t-127.5 52.5t-52.5 127.5t52.5 127.5t127.5 52.5t127.5 -52.5t52.5 -127.5z" />
    <glyph glyph-name="ellipsis" unicode="&#x2026;" horiz-adv-x="1000" 
d="M107 132h120v-132h-120v132zM440 132h120v-132h-120v132zM773 132h120v-132h-120v132z" />
    <glyph glyph-name="perthousand" unicode="&#x2030;" horiz-adv-x="1000" 
d="M186 433q15 0 23.5 6t12.5 25t5 38t1 60q0 20 -0.5 28.5t-4 26.5t-13 26t-24.5 8t-24.5 -8t-13 -26t-4 -26.5t-0.5 -28.5q0 -41 1 -60t5 -38t12.5 -25t23.5 -6zM186 707q37 0 62 -13.5t36.5 -39t16 -52t4.5 -62.5q0 -40 -3.5 -64.5t-14.5 -49.5t-36 -37t-65 -12t-65 12
t-36 37t-14.5 49.5t-3.5 64.5q0 36 4.5 62.5t16 52t36.5 39t62 13.5zM814 318q37 0 62 -13.5t36.5 -39t16 -52t4.5 -62.5q0 -40 -3.5 -64.5t-14.5 -49.5t-36 -37t-65 -12t-65 12t-36 37t-14.5 49.5t-3.5 64.5q0 36 4.5 62.5t16 52t36.5 39t62 13.5zM814 44q15 0 23.5 6
t12.5 25t5 38t1 60q0 20 -0.5 28.5t-4 26.5t-13 26t-24.5 8t-24.5 -8t-13 -26t-4 -26.5t-0.5 -28.5q0 -41 1 -60t5 -38t12.5 -25t23.5 -6zM517 44q15 0 23.5 6t12.5 25t5 38t1 60q0 20 -0.5 28.5t-4 26.5t-13 26t-24.5 8t-24.5 -8t-13 -26t-4 -26.5t-0.5 -28.5q0 -41 1 -60
t5 -38t12.5 -25t23.5 -6zM517 318q37 0 62 -13.5t36.5 -39t16 -52t4.5 -62.5q0 -40 -3.5 -64.5t-14.5 -49.5t-36 -37t-65 -12t-65 12t-36 37t-14.5 49.5t-3.5 64.5q0 36 4.5 62.5t16 52t36.5 39t62 13.5zM142 -45l338 795h86l-339 -795h-85z" />
    <glyph glyph-name="guilsinglleft" unicode="&#x2039;" horiz-adv-x="222" 
d="M98 75l-91 197l92 192h116l-88 -192l86 -197h-115z" />
    <glyph glyph-name="guilsinglright" unicode="&#x203a;" horiz-adv-x="222" 
d="M124 464l91 -197l-92 -192h-116l88 192l-86 197h115z" />
    <glyph glyph-name="fraction" unicode="&#x2044;" horiz-adv-x="167" 
d="M248 733l-266 -761h-62l263 761h65z" />
    <glyph glyph-name="Euro" unicode="&#x20ac;" horiz-adv-x="444" 
d="M24 307h30v75h-49l19 82l32 1v21q0 223 193 223q100 0 142 -45t42 -141h-123q0 40 -12.5 58t-46.5 18q-39 0 -51.5 -24.5t-12.5 -76.5v-33h160l-19 -83h-142v-75h125l-19 -84h-105v-25q0 -60 13.5 -83.5t53.5 -23.5q34 0 46.5 17.5t12.5 61.5h121q0 -96 -44.5 -140.5
t-140.5 -44.5q-107 0 -150.5 49.5t-43.5 162.5v26h-50z" />
    <glyph glyph-name="afii61289" unicode="&#x2113;" horiz-adv-x="420" 
d="M364 173l45 -49q-58 -130 -168 -130q-78 0 -115 46.5t-40 118.5v12l-43 -38l-27 65q51 47 70 69v256q0 116 44 177.5t110 61.5q56 0 84.5 -47t28.5 -126q0 -153 -153 -332v-57q1 -108 68 -108q49 0 96 81zM200 506v-132q87 124 87 224q0 73 -41 73q-46 0 -46 -165z" />
    <glyph glyph-name="trademark" unicode="&#x2122;" horiz-adv-x="860" 
d="M820 722v-433h-96v334h-2l-89 -334h-94l-85 334h-2v-334h-96v433h159l73 -295h2l77 295h153zM3 722h317v-72h-111v-361h-96v361h-110v72z" />
    <glyph glyph-name="Omega" unicode="&#x2126;" horiz-adv-x="549" 
d="M128 103v3q-91 123 -91 280q0 131 66.5 223t173.5 92q75 0 129.5 -49.5t77.5 -116.5t23 -139q0 -86 -26.5 -163t-64.5 -127v-3h104v-103h-211v74q33 29 55.5 104t22.5 187q0 98 -28.5 162.5t-84.5 64.5q-54 0 -85.5 -64.5t-31.5 -167.5t23 -180t55 -106v-74h-210v103h103
z" />
    <glyph glyph-name="estimated" unicode="&#x212e;" horiz-adv-x="863" 
d="M829 339h-644q-5 0 -5 -4v-195q0 -12 8 -22q103 -106 244 -106q75 0 141.5 31.5t114.5 86.5h57q-54 -64 -137 -101t-177 -37q-165 0 -281.5 104.5t-116.5 252.5t116.5 253t281.5 105t281.5 -105t116.5 -253v-10zM683 364v196q0 12 -10 24q-103 101 -241 101
q-140 0 -243 -105q-9 -9 -9 -24v-192q0 -6 5 -6h493q5 0 5 6z" />
    <glyph glyph-name="partialdiff" unicode="&#x2202;" horiz-adv-x="480" 
d="M90 633l-31 99q63 54 150 54q95 0 161.5 -94.5t66.5 -277.5q0 -200 -60.5 -308.5t-171.5 -108.5q-80 0 -125.5 69t-45.5 162q0 120 52.5 191.5t127.5 71.5q39 0 66.5 -19t39.5 -41h1v30q0 86 -35.5 152.5t-92.5 66.5q-56 0 -103 -47zM216 104h1q39 0 64 66.5t31 151.5
q-6 24 -26.5 45t-49.5 21q-38 0 -61.5 -50.5t-23.5 -117.5q0 -51 17.5 -83.5t47.5 -32.5z" />
    <glyph glyph-name="Delta" unicode="&#x2206;" horiz-adv-x="533" 
d="M23 0v74l178 629h139l168 -626v-77h-485zM141 101h247l-76 263q-6 27 -23 93.5t-21 88.5h-2q-4 -20 -20.5 -79.5t-22.5 -89.5z" />
    <glyph glyph-name="product" unicode="&#x220f;" horiz-adv-x="601" 
d="M576 575h-77v-670h-119v670h-160v-670h-119v670h-77v116h552v-116z" />
    <glyph glyph-name="summation" unicode="&#x2211;" horiz-adv-x="455" 
d="M439 -96h-417v85l192 312l-187 300v90h399v-105h-246v-3l165 -257l-188 -299v-3h282v-120z" />
    <glyph glyph-name="minus" unicode="&#x2212;" 
d="M25 197v111h450v-111h-450z" />
    <glyph glyph-name="uni2215" unicode="&#x2215;" horiz-adv-x="167" 
d="M248 733l-266 -761h-62l263 761h65z" />
    <glyph glyph-name="uni2219" unicode="&#x2219;" horiz-adv-x="222" 
d="M51 289h120v-132h-120v132z" />
    <glyph glyph-name="radical" unicode="&#x221a;" horiz-adv-x="501" 
d="M501 834l-181 -966h-94l-116 428l-63 -25l-18 72l153 62l73 -285l9 -51.5l8 -44.5l1 -1q1 5 5 42.5t8 60.5l136 708h79z" />
    <glyph glyph-name="infinity" unicode="&#x221e;" horiz-adv-x="694" 
d="M652 286v-2q0 -72 -43 -115.5t-102 -43.5q-42 0 -79.5 21.5t-78.5 78.5q-39 -49 -77 -74.5t-88 -25.5q-57 0 -99.5 43.5t-42.5 111.5q0 69 42.5 113t107.5 44q85 0 158 -97q47 54 75 71q39 26 86 26q60 0 100.5 -42t40.5 -109zM193 192h1q23 0 45.5 13.5t36 28t36.5 42.5
l-28 37.5t-24.5 27.5t-33.5 24t-36 6q-38 0 -59 -25.5t-21 -66.5q0 -36 24 -61.5t59 -25.5zM505 371h-1q-11 0 -21.5 -2.5t-21 -9.5l-18 -12t-17.5 -16l-14.5 -16l-15 -17.5t-12.5 -14.5q42 -53 66.5 -72t58.5 -19t54.5 27.5t20.5 59.5q0 40 -22 66t-57 26z" />
    <glyph glyph-name="integral" unicode="&#x222b;" horiz-adv-x="364" 
d="M334 846l-12 -89q-14 7 -28 7q-26 0 -41 -25q-22 -32 -22 -165q0 -79 6 -230t6 -244q0 -137 -30 -200q-33 -72 -119 -72q-40 0 -66 15l15 92q24 -9 34 -9q23 0 35 19q19 32 19 151q0 94 -6 249t-6 239q0 88 12 139.5t40 85.5q40 46 109 46q29 0 54 -9z" />
    <glyph glyph-name="approxequal" unicode="&#x2248;" horiz-adv-x="457" 
d="M382 436l42 -36q-18 -44 -48.5 -71.5t-66.5 -27.5q-41 0 -92 35q-42 31 -71 31q-17 0 -31.5 -11.5t-20.5 -20.5t-20 -33l-43 36q19 43 51 70t71 27q12 0 23 -2t21 -6.5l16.5 -7.5t16 -8.5t12.5 -7.5q4 -3 13 -8.5t12.5 -8t11 -6.5t11.5 -5.5t10 -3t11 -1.5q16 0 29 10
t21 21.5t21 34.5zM382 265l42 -36q-18 -43 -48.5 -70.5t-67.5 -27.5q-39 0 -91 35q-44 32 -71 32q-5 0 -10 -1t-9 -2.5t-8.5 -5t-7.5 -5.5t-7.5 -7.5t-6.5 -7.5t-6 -9t-5.5 -9t-6 -9.5t-5.5 -9.5l-43 36q19 43 51 70t71 27q12 0 23 -2t21.5 -6.5t16 -7.5t15.5 -9t12 -7
l15.5 -9.5l15.5 -9.5t12.5 -7t14 -5.5t12.5 -1.5q16 0 29 10t20.5 21t21.5 34z" />
    <glyph glyph-name="notequal" unicode="&#x2260;" horiz-adv-x="457" 
d="M339 488l-31 -77h107v-71h-131l-49 -120h180v-72h-204l-39 -96l-54 19l32 77h-110v72h134l48 120h-182v71h206l39 96z" />
    <glyph glyph-name="lessequal" unicode="&#x2264;" horiz-adv-x="457" 
d="M412 98l-366 205v78l366 205v-85l-301 -158v-2l301 -158v-85zM417 -9h-375v72h375v-72z" />
    <glyph glyph-name="greaterequal" unicode="&#x2265;" horiz-adv-x="457" 
d="M48 586l367 -206v-77l-367 -205v85l302 158v2l-302 158v85zM417 -9h-374v72h374v-72z" />
    <glyph glyph-name="lozenge" unicode="&#x25ca;" 
d="M457 345l-162 -390h-98l-154 390l162 391h98zM351 342l-81 217q-12 42 -16 70h-4q-8 -44 -17 -70l-84 -211l83 -222q4 -14 14 -65h5q9 46 15 62z" />
    </font>
</defs>
</svg>
